<?xml version="1.0" encoding="UTF-8"?>
<svg version="1.1" xmlns="http://www.w3.org/2000/svg" width="948" height="1316">
<path d="M0 0 C312.84 0 625.68 0 948 0 C948 434.28 948 868.56 948 1316 C635.16 1316 322.32 1316 0 1316 C0 881.72 0 447.44 0 0 Z " fill="#FEFEFE" transform="translate(0,0)"/>
<path d="M0 0 C5.84130484 3.78357246 7.29094181 9.66702298 8.71875 16.11328125 C9.49689216 20.76763469 10.14509965 25.42959486 10.71875 30.11328125 C11.04875 26.81328125 11.37875 23.51328125 11.71875 20.11328125 C16.22370019 20.99660482 18.20212462 21.64062399 21.65625 24.80078125 C24.05294237 28.65001444 23.89236075 30.67831565 23.71875 35.11328125 C24.42 34.33082031 25.12125 33.54835938 25.84375 32.7421875 C34.44479906 23.46022839 34.44479906 23.46022839 39.40625 22.92578125 C41.0459375 23.01859375 41.0459375 23.01859375 42.71875 23.11328125 C42.38875 22.57703125 42.05875 22.04078125 41.71875 21.48828125 C40.46431808 18.50900545 40.44582761 16.32011928 40.71875 13.11328125 C41.37875 12.12328125 42.03875 11.13328125 42.71875 10.11328125 C43.37875 10.11328125 44.03875 10.11328125 44.71875 10.11328125 C45.04875 11.10328125 45.37875 12.09328125 45.71875 13.11328125 C46.17314453 12.15615234 46.17314453 12.15615234 46.63671875 11.1796875 C47.05566406 10.35339844 47.47460938 9.52710938 47.90625 8.67578125 C48.31230469 7.85207031 48.71835937 7.02835937 49.13671875 6.1796875 C50.71875 4.11328125 50.71875 4.11328125 53.39453125 3.328125 C54.16152344 3.25722656 54.92851563 3.18632812 55.71875 3.11328125 C59.45771888 11.78768905 59.45771888 11.78768905 57.71875 17.11328125 C56.5451794 19.44815516 55.2967151 21.7119675 53.97265625 23.96484375 C51.32689953 28.29318856 51.32689953 28.29318856 50.90625 33.23828125 C50.6412037 38.71590477 48.42031588 42.4199997 45.71875 47.11328125 C44.99171875 48.41458984 44.99171875 48.41458984 44.25 49.7421875 C40.89429896 55.39259588 36.9958946 60.32379229 32.59375 65.17578125 C31.83952759 66.01653198 31.83952759 66.01653198 31.07006836 66.87426758 C28.19209528 69.95108071 25.78293796 71.91486685 21.71875 73.11328125 C21.96540405 74.15572998 21.96540405 74.15572998 22.21704102 75.21923828 C22.76137819 78.35917644 22.79844525 81.23227452 22.74609375 84.41796875 C22.73255859 85.63395752 22.71902344 86.84994629 22.70507812 88.1027832 C22.68896484 89.38499756 22.67285156 90.66721191 22.65625 91.98828125 C22.58908046 101.10710551 22.7950831 109.75752325 24.26171875 118.7578125 C24.80218319 122.72583772 24.98351951 126.61264026 25.03125 130.61328125 C25.04800781 131.88171875 25.06476563 133.15015625 25.08203125 134.45703125 C24.52509479 140.06232723 22.89229253 143.83057198 19.03125 148.05078125 C14.65900931 150.77311979 12.7973195 150.75817896 7.71875 150.11328125 C4.71875 148.61328125 4.71875 148.61328125 2.71875 147.11328125 C1.42222807 148.18315058 1.42222807 148.18315058 1.62109375 150.70288086 C1.63269531 151.87858643 1.64429688 153.05429199 1.65625 154.265625 C1.66519675 155.64802907 1.67388942 157.0304348 1.68237305 158.4128418 C1.69172379 159.53932632 1.69172379 159.53932632 1.70126343 160.68856812 C1.82653323 177.61092253 1.68964989 194.53460395 1.45629883 211.45535278 C1.42325043 213.99457833 1.3951575 216.5338738 1.37231445 219.07321167 C1.21537159 235.96863916 0.44117475 251.82048054 -4.28125 268.11328125 C-4.54167136 269.9190331 -4.75680048 271.73247878 -4.90625 273.55078125 C-5.01839844 274.84822266 -5.01839844 274.84822266 -5.1328125 276.171875 C-5.18179687 276.81253906 -5.23078125 277.45320313 -5.28125 278.11328125 C-4.07082031 278.24283203 -4.07082031 278.24283203 -2.8359375 278.375 C6.12925104 279.4123732 15.0676099 280.673718 23.98529053 282.0597229 C25.92323117 282.35631483 27.86420454 282.63287148 29.80517578 282.90893555 C41.11400704 284.70716221 50.23028721 288.88552241 59.34375 295.73828125 C60.53980622 296.6197176 61.73781807 297.49850482 62.9375 298.375 C63.55496094 298.82665527 64.17242188 299.27831055 64.80859375 299.74365234 C68.09525914 302.10027208 71.46945351 304.32229894 74.84375 306.55078125 C82.69263789 311.74761189 90.49483508 317.01104473 98.28125 322.30078125 C98.87505463 322.70414703 99.46885925 323.10751282 100.08065796 323.52310181 C103.09878455 325.5735458 106.11644467 327.6246747 109.13378906 329.67626953 C112.06317338 331.66794508 114.99355852 333.65814136 117.92437744 335.64770508 C140.01162518 350.64170906 140.01162518 350.64170906 150.71875 358.11328125 C154.21271754 356.61473427 156.48568254 354.6040085 159.16796875 351.9296875 C160.01182129 351.08994385 160.85567383 350.2502002 161.72509766 349.38500977 C163.05226807 348.04394165 163.05226807 348.04394165 164.40625 346.67578125 C165.76435791 345.30860962 165.76435791 345.30860962 167.14990234 343.91381836 C173.07714347 337.89807092 178.6227063 331.85253904 183.71875 325.11328125 C184.85183594 323.705625 184.85183594 323.705625 186.0078125 322.26953125 C203.7117183 300.01319253 217.23890241 275.19327384 227.65454102 248.79907227 C228.35595448 247.02888426 229.06972946 245.26353732 229.79663086 243.50366211 C232.00679602 238.1331625 233.79936776 232.78897155 235.28125 227.17578125 C235.47654297 226.45455078 235.67183594 225.73332031 235.87304688 224.99023438 C236.27754595 223.49477361 236.6780934 221.99823912 237.07495117 220.50073242 C237.52401829 218.83542059 237.9889954 217.17435284 238.46606445 215.5168457 C240.38320902 208.78844623 241.71519113 202.08745978 242.78125 195.17578125 C242.95116455 194.09039063 243.1210791 193.005 243.29614258 191.88671875 C245.67473144 176.3019944 246.7917651 160.87202447 247.71875 145.11328125 C294.57875 145.11328125 341.43875 145.11328125 389.71875 145.11328125 C387.16883098 147.66320027 384.2975088 148.72352414 381.02734375 150.09765625 C380.34336014 150.38957855 379.65937653 150.68150085 378.95466614 150.98226929 C376.69047265 151.94725216 374.4234092 152.90528921 372.15625 153.86328125 C370.56785908 154.53848875 368.97964524 155.21411294 367.39160156 155.89013672 C364.11169391 157.28534993 360.83056094 158.6776208 357.54833984 160.06738281 C353.07814251 161.96020016 348.61095266 163.86001244 344.14453125 165.76171875 C329.00872599 172.20245128 313.85124771 178.59090102 298.67675781 184.93994141 C296.33123362 185.92147526 293.991356 186.91667682 291.65893555 187.92895508 C288.71875 189.11328125 288.71875 189.11328125 286.41333008 189.6315918 C284.23772792 190.02040332 284.23772792 190.02040332 281.71875 192.11328125 C280.29791331 196.1475177 279.59612194 200.22052071 278.97024536 204.44467163 C278.44067024 207.99677268 277.80427621 211.53000008 277.1796875 215.06640625 C277.05858109 215.76662399 276.93747467 216.46684174 276.81269836 217.1882782 C275.24599733 226.0930566 272.61946265 234.56832477 269.71875 243.11328125 C269.44417969 243.93828125 269.16960938 244.76328125 268.88671875 245.61328125 C257.50095346 279.71858732 241.74256468 311.57035397 219.71875 340.11328125 C219.25194824 340.72284668 218.78514648 341.33241211 218.30419922 341.96044922 C212.70572238 349.25659024 206.96182393 356.35144186 200.71875 363.11328125 C202.33205664 368.04923132 205.20025842 371.83620973 208.21875 375.98828125 C209.31921577 377.52496326 210.41815157 379.06274198 211.515625 380.6015625 C212.33450195 381.74939209 212.33450195 381.74939209 213.16992188 382.92041016 C215.32398394 385.97018719 217.4078902 389.062502 219.46875 392.17578125 C219.85015137 392.75191162 220.23155273 393.32804199 220.62451172 393.92163086 C221.47437915 395.20691585 222.32379546 396.49249921 223.17285156 397.77832031 C226.18090121 402.32174843 229.20852064 406.85217403 232.23254395 411.38497925 C234.01238969 414.0531348 235.79130983 416.72190728 237.5703125 419.390625 C238.17697754 420.30062256 238.78364258 421.21062012 239.40869141 422.14819336 C239.84101074 422.79667236 240.27333008 423.44515137 240.71875 424.11328125 C236.78593875 424.11328125 234.70237201 422.3197245 231.59375 420.15234375 C230.6768338 419.5255648 230.6768338 419.5255648 229.74139404 418.88612366 C228.41973896 417.98163271 227.10021521 417.07402128 225.78259277 416.16366577 C223.71016951 414.73235517 221.63198121 413.30983874 219.55175781 411.88989258 C216.69243211 409.93784103 213.83476398 407.98340698 210.97851562 406.02685547 C205.08054011 401.98981837 199.1682775 397.97446274 193.23486328 393.98968506 C192.06013485 393.19888692 190.88726809 392.40531603 189.71630859 391.60894775 C188.09122004 390.50377349 186.45982418 389.40789069 184.828125 388.3125 C183.90999023 387.69205811 182.99185547 387.07161621 182.04589844 386.43237305 C179.7296022 384.866722 179.7296022 384.866722 176.71875 385.11328125 C176.38875 386.10328125 176.05875 387.09328125 175.71875 388.11328125 C172.8372818 390.83834408 169.67036851 393.22063442 166.55126953 395.66796875 C164.57261989 397.22853442 162.61277864 398.81115593 160.65234375 400.39453125 C150.14916215 408.80366824 139.27070925 416.22321768 127.71875 423.11328125 C127.06261719 423.50821777 126.40648437 423.9031543 125.73046875 424.31005859 C105.48488909 436.40815472 84.04072718 445.61781418 61.71875 453.11328125 C60.73946533 453.45214355 59.76018066 453.79100586 58.7512207 454.14013672 C51.75277082 456.53690513 44.72562641 458.52104909 37.53125 460.23828125 C36.45496338 460.49689941 35.37867676 460.75551758 34.26977539 461.02197266 C25.46366958 463.07246702 16.72533938 464.39473629 7.71875 465.11328125 C10.30415912 456.69675157 13.81371862 448.72567094 17.34375 440.67578125 C17.94825744 439.28855991 18.55242671 437.90119115 19.15625 436.51367188 C23.49030347 426.57017432 23.49030347 426.57017432 24.71875 424.11328125 C27.52867732 423.27666859 30.30865593 422.54686995 33.15625 421.86328125 C63.47298039 414.18243623 92.87477003 401.87873283 118.71875 384.11328125 C119.35087402 383.68047852 119.98299805 383.24767578 120.63427734 382.80175781 C129.65291359 376.6044209 138.39713472 370.2306887 146.71875 363.11328125 C145.20474609 362.29150391 145.20474609 362.29150391 143.66015625 361.453125 C133.54867276 355.9215979 123.63102141 350.11146437 113.76513672 344.15405273 C105.34886382 339.07671341 96.88967126 334.07742184 88.40625 329.11328125 C87.80654388 328.76224335 87.20683777 328.41120544 86.58895874 328.04953003 C78.63703849 323.39587197 70.67810918 318.7542013 62.71875 314.11328125 C72.65621122 330.24969944 83.81597955 345.76424902 95.10498047 360.98193359 C98.71875 365.89965366 98.71875 365.89965366 98.71875 368.11328125 C95.07693477 367.53995779 93.43447695 366.18199097 90.90625 363.55078125 C90.20757813 362.82503906 89.50890625 362.09929687 88.7890625 361.3515625 C86.32693141 358.68967361 83.92488511 355.98554016 81.55859375 353.23828125 C78.00981976 349.13948497 74.35155991 345.13750502 70.71875 341.11328125 C69.21846321 339.44687274 67.71846128 337.78020772 66.21875 336.11328125 C65.47753906 335.2934375 64.73632812 334.47359375 63.97265625 333.62890625 C62.44464683 331.92346765 60.93200699 330.20415599 59.43359375 328.47265625 C47.12247236 314.36660293 34.1918303 310.37108737 15.71875 309.11328125 C17.95493534 313.05878092 20.2100115 316.99315618 22.46875 320.92578125 C23.10296875 322.04533203 23.7371875 323.16488281 24.390625 324.31835938 C25.009375 325.39150391 25.628125 326.46464844 26.265625 327.5703125 C26.83120117 328.5600708 27.39677734 329.5498291 27.97949219 330.56958008 C31.42916914 335.61480526 35.54175427 336.86210016 41.18359375 338.5625 C47.072232 342.16464081 49.95813877 350.31517437 52.890625 356.375 C53.25851135 357.12868362 53.62639771 357.88236725 54.00543213 358.65888977 C54.77393875 360.23674949 55.54017326 361.81571776 56.30419922 363.39575195 C57.47254966 365.8086283 58.65185073 368.21593875 59.83203125 370.62304688 C60.58139335 372.16504199 61.33011406 373.707349 62.078125 375.25 C62.42913269 375.96467941 62.78014038 376.67935883 63.14178467 377.41569519 C64.84354507 380.95702866 66.18872062 384.20597687 66.71875 388.11328125 C63.80469942 387.78080568 62.79680947 387.19566877 60.74609375 385.03125 C60.05644531 384.13019531 59.36679687 383.22914063 58.65625 382.30078125 C55.32365843 378.07074302 51.89710973 374.04483346 48.21875 370.11328125 C44.61435304 366.25142736 41.20580131 362.30715221 37.90625 358.17578125 C31.83584665 350.73980386 26.80543927 347.48063165 17.64453125 344.6171875 C13.83656123 342.65981973 13.10047225 341.13112206 11.71875 337.11328125 C11.50826915 335.19711129 11.301339 333.27843832 11.20263672 331.35327148 C10.86737779 325.03371594 10.26264118 320.68769372 5.59375 316.05078125 C3.99761394 314.70332775 2.37332649 313.38829415 0.71875 312.11328125 C-0.55808178 310.9950939 -1.8291699 309.87030578 -3.09375 308.73828125 C-3.73957031 308.18398438 -4.38539063 307.6296875 -5.05078125 307.05859375 C-7.83991175 304.62604211 -10.56030845 302.12137154 -13.28125 299.61328125 C-19.46817771 293.92049547 -25.69611336 288.34298668 -32.28125 283.11328125 C-32.08490967 283.75539551 -31.88856934 284.39750977 -31.6862793 285.05908203 C-25.00677224 307.16446212 -22.22195171 328.30823978 -20.7109375 351.296875 C-20.41815812 355.61060472 -19.91466216 359.83515324 -19.28125 364.11328125 C-19.08780249 366.80273896 -18.91792054 369.48377624 -18.78125 372.17578125 C-18.69996195 373.66540533 -18.6179176 375.1549883 -18.53515625 376.64453125 C-18.49406738 377.38703125 -18.45297852 378.12953125 -18.41064453 378.89453125 C-18.09512321 384.30482898 -17.68379644 389.70888113 -17.28125 395.11328125 C-17.94125 395.11328125 -18.60125 395.11328125 -19.28125 395.11328125 C-23.82976481 386.03940396 -28.37612915 376.96445284 -32.91973782 367.88811779 C-35.02949717 363.67382156 -37.14000039 359.45990131 -39.25219727 355.24682617 C-41.28988135 351.18230936 -43.32561967 347.11682355 -45.36000252 343.05065346 C-46.1371825 341.49814366 -46.91506747 339.94598657 -47.69366264 338.39418602 C-48.78257833 336.22359482 -49.86899927 334.05177238 -50.95483398 331.87963867 C-51.27851456 331.2358728 -51.60219513 330.59210693 -51.9356842 329.92883301 C-53.22542939 327.34335026 -54.36585744 324.85945894 -55.28125 322.11328125 C-58.54409799 323.04394664 -59.98939852 323.68045325 -61.9152832 326.53662109 C-62.38281006 327.53902832 -62.85033691 328.54143555 -63.33203125 329.57421875 C-63.86634766 330.68667969 -64.40066406 331.79914063 -64.95117188 332.9453125 C-65.76424805 334.69908203 -65.76424805 334.69908203 -66.59375 336.48828125 C-71.94629398 347.89576866 -78.08098278 358.28748904 -85.90625 368.17578125 C-90.1372317 373.57904132 -94.22449739 379.07821585 -98.28125 384.61328125 C-102.47820176 390.32518309 -106.67866678 396.03331886 -110.96875 401.67578125 C-111.73574219 402.68769531 -112.50273437 403.69960938 -113.29296875 404.7421875 C-115.28125 407.11328125 -115.28125 407.11328125 -118.28125 409.11328125 C-117.63203871 405.98795687 -116.55105131 403.51132897 -115.015625 400.71875 C-114.30768799 399.42493408 -114.30768799 399.42493408 -113.58544922 398.10498047 C-113.07256348 397.17959473 -112.55967773 396.25420898 -112.03125 395.30078125 C-111.50418457 394.34187988 -110.97711914 393.38297852 -110.43408203 392.39501953 C-105.84439364 384.06988348 -101.17349693 375.79032748 -96.47167969 367.52807617 C-95.6929248 366.15872925 -95.6929248 366.15872925 -94.8984375 364.76171875 C-94.21177002 363.55781494 -94.21177002 363.55781494 -93.51123047 362.32958984 C-92.90239014 361.23251709 -92.90239014 361.23251709 -92.28125 360.11328125 C-91.90129883 359.48728027 -91.52134766 358.8612793 -91.12988281 358.21630859 C-89.97043247 355.3430332 -90.05676632 352.90855083 -90.0859375 349.81640625 C-90.09238281 348.61113281 -90.09882813 347.40585937 -90.10546875 346.1640625 C-90.12222656 344.90980469 -90.13898438 343.65554688 -90.15625 342.36328125 C-90.16978516 340.45869141 -90.16978516 340.45869141 -90.18359375 338.515625 C-90.20715995 335.38132032 -90.24006168 332.24739584 -90.28125 329.11328125 C-94.70900417 329.62875354 -97.58169001 330.612968 -101.265625 333.10546875 C-102.19125244 333.72236572 -103.11687988 334.3392627 -104.07055664 334.97485352 C-105.04758545 335.63928467 -106.02461426 336.30371582 -107.03125 336.98828125 C-109.10669689 338.37185801 -111.18353399 339.75335153 -113.26171875 341.1328125 C-114.28571777 341.81424316 -115.3097168 342.49567383 -116.36474609 343.19775391 C-120.30287055 345.78427027 -124.30743999 348.24634129 -128.34375 350.67578125 C-136.03826268 355.32233149 -143.6270775 360.12280362 -151.2019043 364.96166992 C-159.19488551 370.06642507 -167.22724496 375.10549015 -175.28125 380.11328125 C-175.28125 377.11328125 -175.28125 377.11328125 -173.18920898 374.6965332 C-172.22604553 373.74063555 -171.25480281 372.79283713 -170.27734375 371.8515625 C-169.76124039 371.34207565 -169.24513702 370.83258881 -168.71339417 370.30766296 C-167.05543907 368.67314043 -165.38773138 367.04903711 -163.71875 365.42578125 C-161.54695585 363.30074745 -159.3794973 361.17136858 -157.21484375 359.0390625 C-156.68811569 358.52101547 -156.16138763 358.00296844 -155.61869812 357.46922302 C-152.22456051 354.1095733 -149.03956831 350.641368 -145.94702148 347.00610352 C-142.68436815 343.29873853 -139.1149936 339.88519441 -135.59375 336.42578125 C-130.07541002 331.10949277 -130.07541002 331.10949277 -125.17578125 325.24609375 C-122.6502321 322.40289821 -120.25392752 321.82847394 -116.65625 320.67578125 C-107.81605976 317.4376969 -103.96717093 310.90701338 -99.28125 303.11328125 C-98.62125 302.12328125 -97.96125 301.13328125 -97.28125 300.11328125 C-117.92179894 311.38082729 -137.89656384 323.68332385 -157.90380859 336.03125 C-161.28364348 338.11475672 -164.66665266 340.19300688 -168.05078125 342.26953125 C-180.17260503 349.70976831 -192.2529296 357.20751948 -204.25878906 364.83349609 C-207.59030737 366.94163455 -210.93519739 369.02831221 -214.28125 371.11328125 C-211.65038755 373.86674338 -209.0190751 376.12840061 -205.859375 378.25 C-204.58066528 379.10924072 -204.58066528 379.10924072 -203.27612305 379.98583984 C-202.37031494 380.58477051 -201.46450684 381.18370117 -200.53125 381.80078125 C-199.5925708 382.42291504 -198.6538916 383.04504883 -197.68676758 383.68603516 C-189.75201624 388.89488187 -181.68200794 393.69987077 -173.28125 398.11328125 C-172.64445313 398.45020996 -172.00765625 398.78713867 -171.3515625 399.13427734 C-154.63271724 407.9175462 -137.41135235 414.84480963 -119.28125 420.11328125 C-117.47527344 420.64888672 -117.47527344 420.64888672 -115.6328125 421.1953125 C-95.43012125 426.89292542 -75.20221934 429.87152049 -54.28125 431.11328125 C-49.33125 431.44328125 -44.38125 431.77328125 -39.28125 432.11328125 C-39.28125 478.64328125 -39.28125 525.17328125 -39.28125 573.11328125 C-41.64331295 569.96386398 -42.94565846 567.89994073 -44.375 564.38671875 C-44.95205688 562.98317139 -44.95205688 562.98317139 -45.54077148 561.55126953 C-45.95012939 560.5404834 -46.3594873 559.52969727 -46.78125 558.48828125 C-47.67765404 556.30568906 -48.57481525 554.12340772 -49.47265625 551.94140625 C-49.93559082 550.81283203 -50.39852539 549.68425781 -50.87548828 548.52148438 C-53.12053928 543.07846388 -55.41880629 537.65828452 -57.71875 532.23828125 C-58.64454527 530.05339136 -59.57032644 527.86849549 -60.49609375 525.68359375 C-60.95612793 524.59852539 -61.41616211 523.51345703 -61.89013672 522.39550781 C-63.27302974 519.13267633 -64.65441715 515.86921225 -66.03515625 512.60546875 C-66.48922852 511.53216309 -66.94330078 510.45885742 -67.41113281 509.35302734 C-68.31841825 507.20768206 -69.22532455 505.06217638 -70.13183594 502.91650391 C-72.28799981 497.81482459 -74.44894576 492.71533659 -76.62606812 487.62255859 C-77.4067753 485.79572363 -78.18582172 483.96817921 -78.96484375 482.140625 C-79.95021328 479.82948557 -80.93839252 477.51954159 -81.9296875 475.2109375 C-82.58904297 473.66212891 -82.58904297 473.66212891 -83.26171875 472.08203125 C-83.65254639 471.16873047 -84.04337402 470.25542969 -84.44604492 469.31445312 C-85.28125 467.11328125 -85.28125 467.11328125 -85.28125 465.11328125 C-85.94697021 465.06502197 -86.61269043 465.0167627 -87.29858398 464.96704102 C-113.74169652 462.83688212 -139.76690528 454.38942799 -164.06738281 444.05273438 C-166.16048421 443.16452814 -168.26207919 442.30067598 -170.3671875 441.44140625 C-197.89254875 430.02454016 -222.95325217 413.12728551 -245.796875 394.16015625 C-249.55976241 391.05991568 -253.41856094 388.08740085 -257.28125 385.11328125 C-264.72149524 389.80963183 -272.09090792 394.59985333 -279.40625 399.48828125 C-280.41945313 400.16439453 -281.43265625 400.84050781 -282.4765625 401.53710938 C-294.12620411 409.3249519 -305.70788692 417.21268952 -317.28125 425.11328125 C-317.61125 424.45328125 -317.94125 423.79328125 -318.28125 423.11328125 C-312.94297027 415.0468389 -307.54914998 407.01988371 -302.10253906 399.02612305 C-300.63460122 396.87039529 -299.169117 394.71299476 -297.70605469 392.55395508 C-294.32593854 387.56718927 -290.92940921 382.59724867 -287.44921875 377.6796875 C-286.87800293 376.85960205 -286.30678711 376.0395166 -285.71826172 375.19458008 C-284.6629741 373.68016146 -283.59366876 372.17538077 -282.50830078 370.68237305 C-279.80060121 366.87663171 -279.80060121 366.87663171 -279.75 362.3828125 C-281.3403024 360.02575715 -282.9763571 358.08112449 -284.96875 356.05078125 C-325.01874863 312.59910004 -352.98483992 250.84358909 -359.28125 192.11328125 C-351.61753505 194.48175828 -344.29918506 197.54121438 -336.94970703 200.72900391 C-334.89299479 201.61901725 -332.83146968 202.49717404 -330.76953125 203.375 C-329.45281722 203.94329785 -328.13639983 204.51228357 -326.8203125 205.08203125 C-325.04454834 205.84676758 -325.04454834 205.84676758 -323.23291016 206.62695312 C-319.88566434 208.31248105 -317.92444116 209.47191715 -316.54516602 212.99169922 C-316.29271118 214.03801514 -316.29271118 214.03801514 -316.03515625 215.10546875 C-315.83986328 215.88656006 -315.64457031 216.66765137 -315.44335938 217.47241211 C-315.24548828 218.30264893 -315.04761719 219.13288574 -314.84375 219.98828125 C-314.40942423 221.71661738 -313.97321951 223.44448239 -313.53515625 225.171875 C-313.32262207 226.01733887 -313.11008789 226.86280273 -312.89111328 227.73388672 C-303.51828651 264.30216921 -283.44389613 299.3160866 -259.28125 328.11328125 C-258.86472168 328.61859375 -258.44819336 329.12390625 -258.01904297 329.64453125 C-241.55699256 349.97881675 -241.55699256 349.97881675 -221.28125 366.11328125 C-218.26979486 365.68389198 -216.25127745 364.60723226 -213.8046875 362.84765625 C-213.14355957 362.37658447 -212.48243164 361.9055127 -211.80126953 361.42016602 C-211.09341309 360.90639404 -210.38555664 360.39262207 -209.65625 359.86328125 C-208.90843262 359.32823975 -208.16061523 358.79319824 -207.39013672 358.24194336 C-203.52461381 355.47147742 -199.67729385 352.6759317 -195.828125 349.8828125 C-194.35424842 348.81368937 -192.88028976 347.74467938 -191.40625 346.67578125 C-190.66358887 346.13663086 -189.92092773 345.59748047 -189.15576172 345.04199219 C-182.97418545 340.57213489 -176.68922802 336.26651323 -170.37841797 331.98193359 C-165.03127628 328.34046794 -159.76114503 324.60843489 -154.53125 320.80078125 C-146.69383258 315.09537826 -138.75656143 309.54327751 -130.78979492 304.02026367 C-122.25174366 298.10065387 -113.75765997 292.12072348 -105.28125 286.11328125 C-105.61125 284.46328125 -105.94125 282.81328125 -106.28125 281.11328125 C-105.38921875 280.82195312 -104.4971875 280.530625 -103.578125 280.23046875 C-96.444094 277.81960631 -96.444094 277.81960631 -90.53125 273.36328125 C-86.79676315 263.65361543 -89.15388798 254.38759976 -91.03125 244.55078125 C-91.30064275 243.08940673 -91.56887893 241.62781851 -91.8359375 240.16601562 C-92.89887485 234.37681551 -93.99756578 228.59454613 -95.10375977 222.81347656 C-96.48709177 215.55798325 -97.75911577 208.31379095 -98.71875 200.98828125 C-99.85529646 192.68381276 -101.26182455 184.45457723 -102.79833984 176.21557617 C-103.90534596 170.25628153 -104.91901121 164.29099949 -105.84375 158.30078125 C-107.49915944 147.59978116 -109.38148834 136.94666943 -111.359375 126.30078125 C-111.63503296 124.80865112 -111.63503296 124.80865112 -111.91625977 123.28637695 C-112.2780725 121.33118124 -112.6430257 119.37656344 -113.01147461 117.42260742 C-113.17655518 116.53033447 -113.34163574 115.63806152 -113.51171875 114.71875 C-113.66020264 113.92621826 -113.80868652 113.13368652 -113.96166992 112.31713867 C-114.28125 110.11328125 -114.28125 110.11328125 -114.28125 106.11328125 C-115.044375 106.11328125 -115.8075 106.11328125 -116.59375 106.11328125 C-119.28125 105.11328125 -119.28125 105.11328125 -120.28125 103.4765625 C-121.92206799 99.33507479 -122.81553913 95.60130997 -122.28125 91.11328125 C-121.62125 90.45328125 -120.96125 89.79328125 -120.28125 89.11328125 C-120.3362473 86.50123681 -120.3362473 86.50123681 -120.78125 83.61328125 C-121.1875 80.64453125 -121.1875 80.64453125 -121.28125 78.11328125 C-119.28125 76.11328125 -119.28125 76.11328125 -116.28125 75.80078125 C-115.29125 75.90390625 -114.30125 76.00703125 -113.28125 76.11328125 C-111.14538322 79.31708142 -111.04992825 80.13268092 -111.15625 83.80078125 C-111.17429687 84.60902344 -111.19234375 85.41726563 -111.2109375 86.25 C-111.23414063 86.86488281 -111.25734375 87.47976563 -111.28125 88.11328125 C-106.63072128 88.38260646 -106.63072128 88.38260646 -102.28125 87.11328125 C-99.90722499 87.04211743 -97.53124323 87.0291904 -95.15625 87.05078125 C-93.87492187 87.05980469 -92.59359375 87.06882812 -91.2734375 87.078125 C-90.28601563 87.08972656 -89.29859375 87.10132813 -88.28125 87.11328125 C-88.06339844 86.32050781 -87.84554688 85.52773438 -87.62109375 84.7109375 C-85.86523384 79.99622327 -83.4049865 75.86848502 -80.84375 71.55078125 C-80.10801758 70.29491211 -80.10801758 70.29491211 -79.35742188 69.01367188 C-77.43521168 65.73735409 -75.51133864 62.47506208 -73.47265625 59.26953125 C-72.02426592 56.93719745 -72.02426592 56.93719745 -71.65625 53.17578125 C-70.80756005 49.18239192 -69.01422603 47.83269353 -65.65625 45.61328125 C-64.21156868 44.75649864 -62.75718642 43.91502449 -61.28125 43.11328125 C-62.69332213 39.57647552 -62.69332213 39.57647552 -64.1328125 36.05078125 C-65.64048759 32.27397901 -66.66963679 29.25607369 -66.28125 25.11328125 C-66.9 25.03078125 -67.51875 24.94828125 -68.15625 24.86328125 C-70.28125 24.11328125 -70.28125 24.11328125 -71.53125 22.05078125 C-71.9025 21.09171875 -71.9025 21.09171875 -72.28125 20.11328125 C-71.29125 19.78328125 -70.30125 19.45328125 -69.28125 19.11328125 C-68.58687253 17.12273249 -67.92514782 15.1207274 -67.28125 13.11328125 C-65.14912177 9.5368081 -63.76004988 7.43248117 -60.28125 5.11328125 C-57.75558994 4.91789458 -55.36582898 4.83426404 -52.84375 4.86328125 C-51.52503906 4.858125 -50.20632813 4.85296875 -48.84765625 4.84765625 C-45.60371237 5.08926434 -43.89226812 5.26406606 -41.28125 7.11328125 C-39.9109445 9.0881333 -38.57452628 11.08714842 -37.28125 13.11328125 C-36.62125 13.44328125 -35.96125 13.77328125 -35.28125 14.11328125 C-36.25901067 12.63318482 -37.2384994 11.15422981 -38.21875 9.67578125 C-39.03666016 8.44021484 -39.03666016 8.44021484 -39.87109375 7.1796875 C-41.11927981 5.213422 -41.11927981 5.213422 -42.28125 4.11328125 C-42.32188832 2.4471101 -42.323971 0.7794003 -42.28125 -0.88671875 C-30.13076412 -8.08700668 -12.23140288 -6.67388054 0 0 Z " fill="#032226" transform="translate(515.28125,342.88671875)"/>
<path d="M0 0 C2.93912231 1.46956115 3.20385525 3.45426772 4.44140625 6.47265625 C4.93390869 7.66205811 5.42641113 8.85145996 5.93383789 10.0769043 C6.19794464 10.72331879 6.46205139 11.36973328 6.73416138 12.03573608 C7.87106861 14.81750009 9.02304844 17.59293849 10.17430115 20.36878967 C10.79607188 21.86812009 11.41711549 23.36775221 12.03749084 24.86766052 C15.81809885 34.00015537 19.69071366 43.09338233 23.5625 52.1875 C24.28803469 53.89321635 25.01353935 55.59894547 25.73901367 57.3046875 C34.24926291 77.41642183 34.24926291 77.41642183 42.93896484 97.45043945 C44 100 44 100 44.64306641 102.21166992 C45.20963348 104.36951857 45.20963348 104.36951857 47 107 C50.11625976 108.36420465 53.26756194 108.76180764 56.625 109.1875 C72.38019037 111.5291632 87.29605954 115.44955803 102.3125 120.6875 C103.07346985 120.95078094 103.8344397 121.21406189 104.61846924 121.48532104 C116.73128804 125.68711647 128.52710694 130.24779067 140 136 C140.84095215 136.41572266 141.6819043 136.83144531 142.54833984 137.25976562 C166.18291144 149.01392722 188.32312228 163.36580565 208.2734375 180.67578125 C211.39611032 183.33765851 214.60080831 185.70752188 218 188 C224.58726231 184.4980518 230.77754408 180.58671568 236.93359375 176.37890625 C238.31056175 175.44533546 238.31056175 175.44533546 239.71534729 174.49290466 C242.62515847 172.51964911 245.53162611 170.54154823 248.4375 168.5625 C251.34005779 166.58740674 254.24339313 164.61349923 257.14894104 162.64280701 C258.94838015 161.42220169 260.74614022 160.19911577 262.54185486 158.97303772 C268.2428947 155.10407898 274.05650886 151.48472266 280 148 C278.75052381 151.20669002 277.49992578 153.97969967 275.5234375 156.80078125 C275.02553711 157.51862793 274.52763672 158.23647461 274.01464844 158.97607422 C273.20302246 160.13260498 273.20302246 160.13260498 272.375 161.3125 C271.19911516 163.00814065 270.02470679 164.70480587 268.8515625 166.40234375 C267.91618652 167.75561768 267.91618652 167.75561768 266.96191406 169.13623047 C263.50583031 174.18101175 260.13130066 179.27992764 256.75 184.375 C251.25410522 192.6463151 245.71205621 200.87618673 240 209 C241.48739804 212.41636738 243.45010477 214.73734308 246 217.4375 C282.13120784 256.92705729 321.66916257 325.81331269 320 381 C312.28329794 378.55093531 304.74393361 375.69237902 297.24121094 372.65893555 C295.82418367 372.09215734 294.40250324 371.53688391 292.9765625 370.99291992 C281.24621157 366.50944445 281.24621157 366.50944445 278.49511719 363.17724609 C277.67729912 361.09663633 277.31878793 359.2113943 277 357 C276.53032043 355.23654673 276.04346541 353.47761193 275.54296875 351.72265625 C275.17051025 350.31910889 275.17051025 350.31910889 274.79052734 348.88720703 C264.81904262 312.46880729 247.1317197 279.67577917 224 250 C222.87851562 248.55560547 222.87851562 248.55560547 221.734375 247.08203125 C200.70884571 220.7222473 174.88823073 199.22443804 146 182 C144.89688477 181.31828735 144.89688477 181.31828735 143.77148438 180.62280273 C99.75401626 153.63300751 50.77851734 144.41802464 0 142 C0 95.14 0 48.28 0 0 Z " fill="#630808" transform="translate(476,60)"/>
<path d="M0 0 C46.86 0 93.72 0 142 0 C139.45008098 2.54991902 136.5787588 3.61024289 133.30859375 4.984375 C132.62461014 5.2762973 131.94062653 5.5682196 131.23591614 5.86898804 C128.97172265 6.83397091 126.7046592 7.79200796 124.4375 8.75 C122.84910908 9.4252075 121.26089524 10.10083169 119.67285156 10.77685547 C116.39294391 12.17206868 113.11181094 13.56433955 109.82958984 14.95410156 C105.35939251 16.84691891 100.89220266 18.74673119 96.42578125 20.6484375 C81.28997599 27.08917003 66.13249771 33.47761977 50.95800781 39.82666016 C48.61248362 40.80819401 46.272606 41.80339557 43.94018555 42.81567383 C41 44 41 44 38.69458008 44.51831055 C36.51897792 44.90712207 36.51897792 44.90712207 34 47 C32.57916331 51.03423645 31.87737194 55.10723946 31.25149536 59.33139038 C30.72192024 62.88349143 30.08552621 66.41671883 29.4609375 69.953125 C29.33983109 70.65334274 29.21872467 71.35356049 29.09394836 72.07499695 C27.52724733 80.97977535 24.90071265 89.45504352 22 98 C21.72542969 98.825 21.45085937 99.65 21.16796875 100.5 C9.78220346 134.60530607 -5.97618532 166.45707272 -28 195 C-28.46680176 195.60956543 -28.93360352 196.21913086 -29.41455078 196.84716797 C-35.01302762 204.14330899 -40.75692607 211.23816061 -47 218 C-45.38669336 222.93595007 -42.51849158 226.72292848 -39.5 230.875 C-38.39953423 232.41168201 -37.30059843 233.94946073 -36.203125 235.48828125 C-35.65720703 236.25350098 -35.11128906 237.0187207 -34.54882812 237.80712891 C-32.39476606 240.85690594 -30.3108598 243.94922075 -28.25 247.0625 C-27.67789795 247.92669556 -27.67789795 247.92669556 -27.09423828 248.80834961 C-26.24437085 250.0936346 -25.39495454 251.37921796 -24.54589844 252.66503906 C-21.53784879 257.20846718 -18.51022936 261.73889278 -15.48620605 266.271698 C-13.70636031 268.93985355 -11.92744017 271.60862603 -10.1484375 274.27734375 C-9.54177246 275.18734131 -8.93510742 276.09733887 -8.31005859 277.03491211 C-7.87773926 277.68339111 -7.44541992 278.33187012 -7 279 C-10.93281125 279 -13.01637799 277.20644325 -16.125 275.0390625 C-17.0419162 274.41228355 -17.0419162 274.41228355 -17.97735596 273.77284241 C-19.29901104 272.86835146 -20.61853479 271.96074003 -21.93615723 271.05038452 C-24.00858049 269.61907392 -26.08676879 268.19655749 -28.16699219 266.77661133 C-31.02631789 264.82455978 -33.88398602 262.87012573 -36.74023438 260.91357422 C-42.63820989 256.87653712 -48.5504725 252.86118149 -54.48388672 248.87640381 C-55.65861515 248.08560567 -56.83148191 247.29203478 -58.00244141 246.4956665 C-59.62752996 245.39049224 -61.25892582 244.29460944 -62.890625 243.19921875 C-63.80875977 242.57877686 -64.72689453 241.95833496 -65.67285156 241.3190918 C-67.9891478 239.75344075 -67.9891478 239.75344075 -71 240 C-71.33 240.99 -71.66 241.98 -72 243 C-74.8814682 245.72506283 -78.04838149 248.10735317 -81.16748047 250.5546875 C-83.14613011 252.11525317 -85.10597136 253.69787468 -87.06640625 255.28125 C-97.56958785 263.69038699 -108.44804075 271.10993643 -120 278 C-120.65613281 278.39493652 -121.31226563 278.78987305 -121.98828125 279.19677734 C-142.23386091 291.29487347 -163.67802282 300.50453293 -186 308 C-187.468927 308.50829346 -187.468927 308.50829346 -188.9675293 309.02685547 C-195.96597918 311.42362388 -202.99312359 313.40776784 -210.1875 315.125 C-211.26378662 315.38361816 -212.34007324 315.64223633 -213.44897461 315.90869141 C-222.25508042 317.95918577 -230.99341062 319.28145504 -240 320 C-237.41459088 311.58347032 -233.90503138 303.61238969 -230.375 295.5625 C-229.77049256 294.17527866 -229.16632329 292.7879099 -228.5625 291.40039062 C-224.22844653 281.45689307 -224.22844653 281.45689307 -223 279 C-220.19007268 278.16338734 -217.41009407 277.4335887 -214.5625 276.75 C-184.23743997 269.06704464 -154.85991418 256.753473 -129 239 C-128.37851074 238.57783203 -127.75702148 238.15566406 -127.11669922 237.72070312 C-117.2588566 231.00290245 -107.90257743 223.94029237 -99 216 C-98.01773438 215.12859375 -97.03546875 214.2571875 -96.0234375 213.359375 C-84.52795314 202.98614109 -73.49939884 192.25841542 -64 180 C-63.236875 179.05382812 -62.47375 178.10765625 -61.6875 177.1328125 C-44.00844213 154.86399923 -30.47876323 130.07724471 -20.06420898 103.68579102 C-19.36279552 101.91560301 -18.64902054 100.15025607 -17.92211914 98.39038086 C-15.71195398 93.01988125 -13.91938224 87.6756903 -12.4375 82.0625 C-12.24220703 81.34126953 -12.04691406 80.62003906 -11.84570312 79.87695312 C-11.44120405 78.38149236 -11.0406566 76.88495787 -10.64379883 75.38745117 C-10.19473171 73.72213934 -9.7297546 72.06107159 -9.25268555 70.40356445 C-7.33554098 63.67516498 -6.00355887 56.97417853 -4.9375 50.0625 C-4.76758545 48.97710938 -4.5976709 47.89171875 -4.42260742 46.7734375 C-2.04401856 31.18871315 -0.9269849 15.75874322 0 0 Z " fill="#630808" transform="translate(763,488)"/>
<path d="M0 0 C-0.69073494 4.70056339 -2.44047044 8.74710821 -4.30859375 13.07421875 C-4.63537613 13.83926224 -4.96215851 14.60430573 -5.29884338 15.39253235 C-5.98827795 17.00302213 -6.68013622 18.61247625 -7.37426758 20.22094727 C-8.43710192 22.68657651 -9.48953037 25.15646607 -10.54101562 27.62695312 C-11.21292239 29.19297418 -11.88542784 30.75873853 -12.55859375 32.32421875 C-13.03056435 33.4335804 -13.03056435 33.4335804 -13.5120697 34.56535339 C-15.77004717 39.77004717 -15.77004717 39.77004717 -18 42 C-20.39546799 42.60865979 -22.76806012 43.13255008 -25.1875 43.625 C-94.0353611 58.91711213 -154.55022402 105.85803122 -192.98046875 163.99609375 C-223.973877 213.13821941 -235.18610816 262.23329795 -240 320 C-286.2 320 -332.4 320 -380 320 C-376.15387682 317.11540762 -372.47439382 315.33712634 -368.08984375 313.515625 C-367.3028157 313.18332382 -366.51578766 312.85102264 -365.70491028 312.50865173 C-363.11783274 311.41747085 -360.52765442 310.33385438 -357.9375 309.25 C-356.12830718 308.48803526 -354.31939106 307.7254132 -352.51074219 306.9621582 C-349.73415739 305.79049385 -346.95742206 304.61920412 -344.17984009 303.4499054 C-338.29583446 300.97258041 -332.41932075 298.47857904 -326.55078125 295.96484375 C-325.81005371 295.64829834 -325.06932617 295.33175293 -324.30615234 295.00561523 C-320.68036142 293.4538183 -317.06195766 291.8876447 -313.45458984 290.29345703 C-306.6248599 287.29145564 -299.84709597 284.54960369 -292.73828125 282.27734375 C-280.50688036 278.76680833 -280.50688036 278.76680833 -271.56396484 270.51123047 C-269.57877611 264.31549431 -269.51544467 258.00427343 -269.28955078 251.55029297 C-268.77187563 245.20287972 -266.96204514 239.21974363 -265.1875 233.125 C-264.8371167 231.89539551 -264.4867334 230.66579102 -264.12573242 229.39892578 C-253.37154675 192.33765858 -235.63932316 156.5592822 -212 126 C-211.37230713 125.18160645 -211.37230713 125.18160645 -210.73193359 124.34667969 C-205.52000125 117.56136869 -200.29085804 110.96358471 -194.265625 104.8671875 C-192.78342175 103.12201237 -192.78342175 103.12201237 -193.22460938 101.1940918 C-194.18067322 98.48875623 -195.53550649 96.40770697 -197.140625 94.02734375 C-197.79272949 93.05458496 -198.44483398 92.08182617 -199.11669922 91.07958984 C-199.82068848 90.0427002 -200.52467773 89.00581055 -201.25 87.9375 C-201.97074707 86.86709473 -202.69149414 85.79668945 -203.43408203 84.69384766 C-205.61613829 81.45805309 -207.80684511 78.22827968 -210 75 C-210.61649414 74.08976074 -211.23298828 73.17952148 -211.86816406 72.24169922 C-218.76917976 62.05735521 -225.79417481 51.97104027 -233 42 C-232.67 41.34 -232.34 40.68 -232 40 C-226.02514457 43.92627856 -220.05205193 47.8552285 -214.08007812 51.78588867 C-212.05572683 53.11785919 -210.03099837 54.4492567 -208.00585938 55.7800293 C-195.91401665 63.72652495 -183.87813844 71.73680663 -172 80 C-168.25428573 78.23228136 -165.55512579 75.99773799 -162.4375 73.25 C-145.7214527 58.8177252 -127.32981238 46.62118413 -108 36 C-107.25427734 35.58492187 -106.50855469 35.16984375 -105.74023438 34.7421875 C-91.61841894 26.92087433 -77.10295739 20.67567466 -62 15 C-61.0912915 14.65372559 -60.18258301 14.30745117 -59.24633789 13.95068359 C-52.48695687 11.42221261 -45.65663617 9.36757397 -38.6875 7.5 C-37.57044678 7.19956787 -36.45339355 6.89913574 -35.30249023 6.58959961 C-10.20305869 0 -10.20305869 0 0 0 Z " fill="#630707" transform="translate(429,168)"/>
<path d="M0 0 C7.66371495 2.36847703 14.98206494 5.42793313 22.33154297 8.61572266 C24.38825521 9.505736 26.44978032 10.38389279 28.51171875 11.26171875 C29.82843278 11.8300166 31.14485017 12.39900232 32.4609375 12.96875 C34.23670166 13.73348633 34.23670166 13.73348633 36.04833984 14.51367188 C39.39558566 16.1991998 41.35680884 17.3586359 42.73608398 20.87841797 C42.98853882 21.92473389 42.98853882 21.92473389 43.24609375 22.9921875 C43.44138672 23.77327881 43.63667969 24.55437012 43.83789062 25.35913086 C44.03576172 26.18936768 44.23363281 27.01960449 44.4375 27.875 C44.87182577 29.60333613 45.30803049 31.33120114 45.74609375 33.05859375 C45.95862793 33.90405762 46.17116211 34.74952148 46.39013672 35.62060547 C55.76296349 72.18888796 75.83735387 107.20280535 100 136 C100.41652832 136.5053125 100.83305664 137.010625 101.26220703 137.53125 C112.32044207 150.93229797 124.25796593 163.32676286 138 174 C139.05370968 174.85346472 140.10571331 175.7090389 141.15625 176.56640625 C155.11935718 187.88081221 170.11975162 197.60167729 186 206 C186.64114746 206.3398291 187.28229492 206.6796582 187.94287109 207.02978516 C204.65734886 215.80897958 221.87555078 222.73317113 240 228 C241.20398438 228.35707031 242.40796875 228.71414063 243.6484375 229.08203125 C263.85112875 234.77964417 284.07903066 237.75823924 305 239 C309.95 239.33 314.9 239.66 320 240 C320 286.53 320 333.06 320 381 C317.63793705 377.85058273 316.33559154 375.78665948 314.90625 372.2734375 C314.52154541 371.33773926 314.13684082 370.40204102 313.74047852 369.43798828 C313.33112061 368.42720215 312.9217627 367.41641602 312.5 366.375 C311.60359596 364.19240781 310.70643475 362.01012647 309.80859375 359.828125 C309.34565918 358.69955078 308.88272461 357.57097656 308.40576172 356.40820312 C306.16071072 350.96518263 303.86244371 345.54500327 301.5625 340.125 C300.63670473 337.94011011 299.71092356 335.75521424 298.78515625 333.5703125 C298.32512207 332.48524414 297.86508789 331.40017578 297.39111328 330.28222656 C296.00822026 327.01939508 294.62683285 323.755931 293.24609375 320.4921875 C292.79202148 319.41888184 292.33794922 318.34557617 291.87011719 317.23974609 C290.96283175 315.09440081 290.05592545 312.94889513 289.14941406 310.80322266 C286.99325019 305.70154334 284.83230424 300.60205534 282.65518188 295.50927734 C281.8744747 293.68244238 281.09542828 291.85489796 280.31640625 290.02734375 C279.33103672 287.71620432 278.34285748 285.40626034 277.3515625 283.09765625 C276.69220703 281.54884766 276.69220703 281.54884766 276.01953125 279.96875 C275.62870361 279.05544922 275.23787598 278.14214844 274.83520508 277.20117188 C274 275 274 275 274 273 C273.33427979 272.95174072 272.66855957 272.90348145 271.98266602 272.85375977 C245.53955348 270.72360087 219.51434472 262.27614674 195.21386719 251.93945312 C193.12076579 251.05124689 191.01917081 250.18739473 188.9140625 249.328125 C161.38870125 237.91125891 136.32799783 221.01400426 113.484375 202.046875 C109.72148759 198.94663443 105.86268906 195.9741196 102 193 C94.55975476 197.69635058 87.19034208 202.48657208 79.875 207.375 C78.86179687 208.05111328 77.84859375 208.72722656 76.8046875 209.42382812 C65.15504589 217.21167065 53.57336308 225.09940827 42 233 C41.67 232.34 41.34 231.68 41 231 C46.33827973 222.93355765 51.73210002 214.90660246 57.17871094 206.9128418 C58.64664878 204.75711404 60.112133 202.59971351 61.57519531 200.44067383 C64.95531146 195.45390802 68.35184079 190.48396742 71.83203125 185.56640625 C72.40324707 184.7463208 72.97446289 183.92623535 73.56298828 183.08129883 C74.6182759 181.56688021 75.68758124 180.06209952 76.77294922 178.5690918 C79.48064879 174.76335046 79.48064879 174.76335046 79.53125 170.26953125 C77.9409476 167.9124759 76.3048929 165.96784324 74.3125 163.9375 C34.26250137 120.48581879 6.29641008 58.73030784 0 0 Z " fill="#630707" transform="translate(156,535)"/>
<path d="M0 0 C0.96472733 -0.01283524 1.92945465 -0.02567047 2.92341614 -0.03889465 C4.49212715 -0.04997505 4.49212715 -0.04997505 6.0925293 -0.0612793 C7.16544724 -0.06935104 8.23836517 -0.07742279 9.34379578 -0.08573914 C11.61768982 -0.09958665 13.89160471 -0.11030581 16.16552734 -0.11816406 C19.64224666 -0.13537674 23.11801524 -0.17925793 26.59448242 -0.22338867 C28.80215771 -0.23351539 31.00984109 -0.24203156 33.2175293 -0.2487793 C34.25726395 -0.26628738 35.2969986 -0.28379547 36.36824036 -0.30183411 C40.8435903 -0.2883942 43.58374325 -0.2704629 47.51098633 2.01025391 C50.02066746 4.96037576 49.99147083 6.84416278 49.91674805 10.67700195 C49.91803711 11.80106445 49.91932617 12.92512695 49.9206543 14.08325195 C49.24152837 17.79268462 48.40461168 19.00041315 45.35424805 21.17700195 C42.78333747 21.67140783 40.40500258 21.676383 37.79174805 21.70825195 C34.38730003 22.3629535 33.42924328 23.39416234 31.35424805 26.17700195 C30.76851935 29.10414218 30.81736603 31.98142167 30.8581543 34.95825195 C30.85597145 36.23400085 30.85597145 36.23400085 30.85374451 37.53552246 C30.85540204 39.33092683 30.86694708 41.12634562 30.88769531 42.92163086 C30.91664813 45.66752565 30.90830229 48.41148894 30.89526367 51.1574707 C30.90150147 52.90357382 30.90989274 54.64967085 30.9206543 56.39575195 C30.91771866 57.21563599 30.91478302 58.03552002 30.91175842 58.88024902 C30.98489784 63.30635973 31.12447355 66.04867962 34.35424805 69.17700195 C37.08247331 69.78485383 37.08247331 69.78485383 40.23095703 69.69458008 C41.43908554 69.70718872 42.64721405 69.71979736 43.89195251 69.73278809 C45.19822098 69.72469116 46.50448944 69.71659424 47.8503418 69.70825195 C49.20410949 69.71094692 50.55787529 69.71482939 51.91163635 69.71984863 C54.74889556 69.72574565 57.58565095 69.71717654 60.42285156 69.69848633 C64.05595063 69.6757172 67.68786643 69.68880376 71.3209219 69.71277618 C74.1168556 69.72724799 76.91250999 69.72262174 79.70845222 69.71226501 C81.69817499 69.70830601 83.68790869 69.72043583 85.67759705 69.73278809 C86.88887772 69.72017944 88.10015839 69.7075708 89.34814453 69.69458008 C90.41387192 69.69139771 91.4795993 69.68821533 92.57762146 69.68493652 C96.06669588 69.04667226 97.24767217 67.99238741 99.35424805 65.17700195 C99.95307281 63.24801399 99.95307281 63.24801399 99.88769531 61.20629883 C99.90353165 60.43870239 99.91936798 59.67110596 99.9356842 58.88024902 C99.9282444 57.65042297 99.9282444 57.65042297 99.9206543 56.39575195 C99.92685287 55.54525269 99.93305145 54.69475342 99.93943787 53.81848145 C99.94653109 52.02312361 99.94337064 50.22769993 99.93066406 48.43237305 C99.9167928 45.68586248 99.95087852 42.94275626 99.98901367 40.1965332 C99.98996486 38.45043862 99.98810608 36.70433977 99.9831543 34.95825195 C99.99641251 34.13836792 100.00967072 33.31848389 100.02333069 32.47375488 C99.9554803 28.31822498 99.91943306 26.77166387 96.95751953 23.65527344 C94.28902534 22.13996515 92.8756273 21.74482128 89.85424805 21.73950195 C86.43449031 21.4654646 85.32382984 21.15775778 82.29174805 19.23950195 C79.54581064 14.89914928 79.44172779 11.18353202 80.35424805 6.17700195 C82.15071659 3.24277 83.29835515 1.7049484 86.35424805 0.17700195 C87.89988803 0.06192526 89.45025903 0.0075519 91 -0.01586914 C91.96472733 -0.03193207 92.92945465 -0.047995 93.92341614 -0.06454468 C98.33744642 -0.10896318 102.75132589 -0.15005805 107.16552734 -0.1730957 C109.49440501 -0.18965979 111.82323174 -0.21695547 114.15185547 -0.25512695 C117.50734872 -0.30985807 120.86164995 -0.33176452 124.2175293 -0.34643555 C125.77713127 -0.38043961 125.77713127 -0.38043961 127.36824036 -0.41513062 C134.58620098 -0.39401401 134.58620098 -0.39401401 138.51098633 2.52392578 C140.70737031 5.68526416 140.99889588 7.41721177 140.91674805 11.23950195 C140.91803711 12.26172852 140.91932617 13.28395508 140.9206543 14.3371582 C140.21611228 17.8695861 139.24538943 19.06443552 136.35424805 21.17700195 C133.91674805 21.6809082 133.91674805 21.6809082 131.35424805 21.73950195 C127.32550126 21.84390545 125.3055174 22.35942581 122.35424805 25.17700195 C121.75327451 27.54403768 121.75327451 27.54403768 121.84631348 30.2563324 C121.83503418 31.30644501 121.82375488 32.35655762 121.81213379 33.43849182 C121.82023071 34.59026413 121.82832764 35.74203644 121.83666992 36.92871094 C121.82966064 38.14192017 121.82265137 39.35512939 121.81542969 40.60510254 C121.80082482 43.93394895 121.80427024 47.26180292 121.81694603 50.59059405 C121.82706761 54.07343562 121.8176825 57.55623454 121.81140137 61.03907776 C121.80412149 66.88924784 121.81372039 72.73921603 121.83276367 78.58935547 C121.85452315 85.35198648 121.84748955 92.11413495 121.82545805 98.87675422 C121.80730142 104.68239134 121.80474724 110.48788324 121.81521273 116.29353958 C121.82144762 119.76120254 121.8222839 123.22863878 121.80906677 126.69628716 C121.79535852 130.56301473 121.81436243 134.42920277 121.83666992 138.29589844 C121.828573 139.44564651 121.82047607 140.59539459 121.81213379 141.77998352 C121.82341309 142.83291595 121.83469238 143.88584839 121.84631348 144.97068787 C121.84782158 145.88489722 121.84932968 146.79910658 121.85088348 147.74101925 C122.51322817 150.94637045 123.83604847 152.15362636 126.35424805 154.17700195 C128.79751476 154.72136685 128.79751476 154.72136685 131.35424805 154.67700195 C134.60185045 154.71660686 135.97588173 154.90229764 138.63549805 156.83325195 C140.80706756 159.7944831 140.89069633 161.53217338 140.85424805 165.17700195 C140.8697168 166.72387695 140.8697168 166.72387695 140.88549805 168.30200195 C140.22128425 171.89657076 139.16726522 172.89954315 136.35424805 175.17700195 C133.92602539 175.69166565 133.92602539 175.69166565 131.19018555 175.71044922 C129.64838623 175.73420372 129.64838623 175.73420372 128.07543945 175.75843811 C126.97119629 175.75347824 125.86695313 175.74851837 124.72924805 175.7434082 C123.02067627 175.75270607 123.02067627 175.75270607 121.27758789 175.76219177 C118.87020727 175.76929328 116.46277756 175.76611026 114.05541992 175.75341797 C110.36765405 175.73955236 106.68242455 175.77362219 102.99487305 175.81176758 C100.65633076 175.81271874 98.31778529 175.8108601 95.97924805 175.8059082 C94.3228833 175.82579552 94.3228833 175.82579552 92.63305664 175.84608459 C85.00479675 175.75307071 85.00479675 175.75307071 81.66308594 172.79394531 C79.52525184 168.51947345 79.50527813 164.83486392 80.35424805 160.17700195 C82.22924805 157.11450195 82.22924805 157.11450195 85.35424805 155.17700195 C87.91952915 154.81645356 90.36156404 154.67632172 92.9519043 154.70825195 C95.49159515 154.34122646 95.49159515 154.34122646 97.47558594 152.39233398 C100.35015732 147.47250225 99.88674872 142.79806362 99.81518555 137.20043945 C99.8142691 136.03823883 99.81335266 134.87603821 99.81240845 133.67861938 C99.80637409 131.22589017 99.79063325 128.77316826 99.76586914 126.32055664 C99.72931497 122.55888853 99.72485018 118.79820429 99.7253418 115.03637695 C99.71551239 112.65355591 99.70385616 110.27074155 99.69018555 107.88793945 C99.6879599 106.75979828 99.68573425 105.6316571 99.68344116 104.46932983 C99.67068146 103.42459503 99.65792175 102.37986023 99.64477539 101.3034668 C99.63715179 100.38367035 99.6295282 99.4638739 99.62167358 98.51620483 C99.50366088 95.9064677 99.50366088 95.9064677 97.35424805 93.17700195 C94.18319194 92.11998325 91.88555318 92.03123432 88.5534668 92 C87.36213135 91.98716476 86.1707959 91.97432953 84.94335938 91.96110535 C83.01206177 91.95002495 83.01206177 91.95002495 81.04174805 91.9387207 C80.38628998 91.93464518 79.73083191 91.93056965 79.05551147 91.92637062 C75.58966388 91.90554139 72.12385557 91.89122319 68.65795898 91.88183594 C65.07645787 91.87074612 61.49557375 91.83630907 57.91429138 91.79666424 C55.16051053 91.77055154 52.4068784 91.76214922 49.65298462 91.75855446 C47.6902788 91.75130759 45.72767447 91.72485283 43.76513672 91.69816589 C42.57380127 91.70109146 41.38246582 91.70401703 40.1550293 91.70703125 C39.10484619 91.70116501 38.05466309 91.69529877 36.97265625 91.68925476 C34.26969061 91.95207361 34.26969061 91.95207361 32.51496887 93.87788391 C31.13996776 96.60144136 30.97985161 98.3877632 30.98193359 101.43286133 C30.9757048 102.48074829 30.96947601 103.52863525 30.96305847 104.60827637 C30.97226822 105.73439331 30.98147797 106.86051025 30.9909668 108.02075195 C30.99046829 109.18199585 30.98996979 110.34323975 30.98945618 111.53967285 C30.99179604 113.99415804 31.00151932 116.44864565 31.01806641 118.90307617 C31.04165749 122.66257152 31.03862648 126.42135766 31.03198242 130.1809082 C31.03755925 132.56502702 31.04466916 134.94914285 31.0534668 137.33325195 C31.05255539 138.4593689 31.05164398 139.58548584 31.05070496 140.74572754 C31.06500298 142.31755798 31.06500298 142.31755798 31.07958984 143.92114258 C31.08419724 144.84173462 31.08880463 145.76232666 31.09355164 146.71081543 C31.37117653 149.33714531 31.93757943 150.95959741 33.35424805 153.17700195 C36.37109203 154.68542394 39.50769683 154.45827063 42.84643555 154.6027832 C46.18130351 155.36637447 47.35835574 156.40924282 49.35424805 159.17700195 C49.8503418 162.3059082 49.8503418 162.3059082 49.79174805 165.73950195 C49.79045898 166.87516602 49.78916992 168.01083008 49.7878418 169.1809082 C49.35424805 172.17700195 49.35424805 172.17700195 48.14854431 173.8380127 C45.74444971 175.63206249 44.19734768 175.56968652 41.21191406 175.59692383 C40.16395157 175.61283569 39.11598907 175.62874756 38.03627014 175.6451416 C36.3393528 175.64544373 36.3393528 175.64544373 34.6081543 175.64575195 C33.44549545 175.65336548 32.28283661 175.660979 31.08494568 175.66882324 C28.62452341 175.67963561 26.1640552 175.68247277 23.70361328 175.67797852 C19.93468831 175.67700658 16.16780058 175.71861131 12.39916992 175.76293945 C10.0105023 175.76814647 7.62182759 175.77083465 5.2331543 175.77075195 C4.1039003 175.78714722 2.9746463 175.80354248 1.81117249 175.82043457 C-5.99218713 175.75135216 -5.99218713 175.75135216 -9.35498047 172.79614258 C-11.46586808 168.51288131 -11.35706521 164.83495651 -10.64575195 160.17700195 C-9.33325195 157.11450195 -9.33325195 157.11450195 -6.64575195 155.17700195 C-3.81238532 154.65528924 -1.08265606 154.42697931 1.7956543 154.31762695 C4.47534031 154.28313143 4.47534031 154.28313143 7.35424805 153.17700195 C8.34542894 150.20345929 8.48678584 148.23952206 8.50141907 145.13563538 C8.50857437 144.09393692 8.51572968 143.05223846 8.52310181 141.97897339 C8.52579071 140.83655182 8.52847961 139.69413025 8.53125 138.51708984 C8.5378212 137.31363419 8.5443924 136.11017853 8.55116272 134.87025452 C8.57090613 130.88005323 8.58255981 126.8898921 8.5925293 122.8996582 C8.59657736 121.52562375 8.60069429 120.1515895 8.60487938 118.77755547 C8.62392187 112.32441104 8.63815704 105.87127802 8.64649135 99.41811091 C8.65627235 91.96797046 8.68261791 84.51812645 8.72299224 77.0680905 C8.75313179 71.30920153 8.76795799 65.55039768 8.77127236 59.79143137 C8.77362461 56.35166066 8.78260748 52.91220698 8.80773354 49.47252083 C8.83529991 45.63701958 8.83118975 41.80191035 8.82421875 37.96630859 C8.83702881 36.82591125 8.84983887 35.68551392 8.86303711 34.51055908 C8.85609329 33.4660408 8.84914948 32.42152252 8.84199524 31.34535217 C8.84438359 30.43851716 8.84677195 29.53168215 8.84923267 28.59736729 C8.19515067 25.399051 6.86436886 24.19549387 4.35424805 22.17700195 C1.91098134 21.63263705 1.91098134 21.63263705 -0.64575195 21.67700195 C-5.36102973 21.39227973 -5.36102973 21.39227973 -8.20825195 19.23950195 C-11.15328624 15.01401798 -11.30046718 11.23140349 -10.64575195 6.17700195 C-7.61899781 1.33419532 -5.55228816 0.06423103 0 0 Z " fill="#032327" transform="translate(629.645751953125,1007.822998046875)"/>
<path d="M0 0 C1.26972656 -0.00064453 2.53945313 -0.00128906 3.84765625 -0.00195312 C5.16636719 0.01802734 6.48507812 0.03800781 7.84375 0.05859375 C9.82181641 0.04795898 9.82181641 0.04795898 11.83984375 0.03710938 C22.79434906 0.10939799 22.79434906 0.10939799 27.34375 3.49609375 C28.56679253 5.94217881 28.46845262 7.51460738 28.46832275 10.2494812 C28.47088577 11.25300125 28.47344879 12.2565213 28.47608948 13.29045105 C28.47398972 14.39584732 28.47188995 15.50124359 28.46972656 16.64013672 C28.4715947 17.8013353 28.47346283 18.96253387 28.47538757 20.15892029 C28.47940015 22.68910372 28.48146719 25.2192908 28.48184967 27.74947739 C28.48438898 31.76036457 28.49583856 35.77116078 28.51141357 39.78201294 C28.51398643 40.45951564 28.51655928 41.13701833 28.5192101 41.83505142 C28.5244772 43.22090792 28.52976268 44.60676435 28.53506613 45.99262071 C28.57011905 55.32972948 28.59673853 64.6667262 28.59423828 74.00390625 C28.59264268 80.30120317 28.60885387 86.59818788 28.64494491 92.89538491 C28.66330405 96.22379487 28.67007075 99.55124116 28.66046906 102.87975693 C28.65079715 106.60635218 28.67212977 110.33162893 28.70019531 114.05810547 C28.68999863 115.14325943 28.67980194 116.22841339 28.66929626 117.34645081 C28.81075301 127.88973845 32.15708782 137.1432052 39.5234375 144.8125 C48.15868419 152.79917666 56.731274 154.08372655 68.171875 153.8046875 C77.36250474 153.30806379 84.19571941 149.20677892 90.34375 142.49609375 C96.92231807 134.25575198 98.80098169 124.75457632 98.74780273 114.42822266 C98.75809761 113.00189514 98.75809761 113.00189514 98.76860046 111.54675293 C98.78673865 108.43856418 98.78305251 105.33088596 98.77734375 102.22265625 C98.78190897 100.04934527 98.78721556 97.87603573 98.79322815 95.70272827 C98.80213154 91.16552838 98.7997644 86.62850481 98.78979492 82.09130859 C98.77825783 76.27375762 98.79860338 70.45680938 98.82771206 64.63933754 C98.84603282 60.15953712 98.8457907 55.67988263 98.84007454 51.20005417 C98.83992109 49.05421472 98.84598471 46.90836553 98.85836601 44.7625618 C98.87321092 41.77051704 98.86264983 38.7796064 98.84545898 35.78759766 C98.85512695 34.90131683 98.86479492 34.01503601 98.87475586 33.10189819 C98.83228896 28.17503278 98.83228896 28.17503278 96.46473694 23.94467163 C93.91705079 22.2046695 92.40549008 22.03343204 89.34375 21.99609375 C86.11875287 21.95676452 84.72128074 21.76548103 82.06640625 19.87109375 C79.82074337 16.77503246 79.77689319 14.7952291 79.78125 10.99609375 C79.75933594 9.87203125 79.73742187 8.74796875 79.71484375 7.58984375 C80.34375 4.49609375 80.34375 4.49609375 82.46704102 2.33374023 C85.93311394 0.11960708 87.91381929 -0.00654472 92 0 C93.26972656 -0.00064453 94.53945313 -0.00128906 95.84765625 -0.00195312 C97.16636719 0.01802734 98.48507812 0.03800781 99.84375 0.05859375 C101.82181641 0.04795898 101.82181641 0.04795898 103.83984375 0.03710938 C114.79434906 0.10939799 114.79434906 0.10939799 119.34375 3.49609375 C120.56505456 5.93870288 120.47490574 7.51836624 120.48419189 10.2494812 C120.48990204 11.25300125 120.49561218 12.2565213 120.50149536 13.29045105 C120.50317215 14.94854546 120.50317215 14.94854546 120.50488281 16.64013672 C120.50984772 17.8013353 120.51481262 18.96253387 120.51992798 20.15892029 C120.53458701 24.01871323 120.54136014 27.87846499 120.546875 31.73828125 C120.55117281 33.74192566 120.55547113 35.74557006 120.5598495 37.74921429 C120.57167169 43.34009895 120.57920077 48.93097365 120.5826447 54.52186954 C120.58711022 61.73077705 120.60458282 68.9394935 120.6336453 76.14834297 C120.65536102 81.73069414 120.66535443 87.312992 120.66668582 92.89538491 C120.66772802 96.22362229 120.67498172 99.55153868 120.69150543 102.87975693 C120.70867464 106.60601722 120.70665817 110.33182102 120.70019531 114.05810547 C120.7094101 115.14325943 120.71862488 116.22841339 120.7281189 117.34645081 C120.63563719 134.47923045 114.2941567 149.22474406 102.34375 161.49609375 C87.9991261 174.29053759 72.40732704 176.27664702 54.01367188 175.67529297 C48.89691402 175.33186756 44.79607236 173.96022388 40.34375 171.49609375 C39.51359375 171.07199219 38.6834375 170.64789062 37.828125 170.2109375 C23.9535359 162.57140148 14.08724776 150.98909382 9.03515625 135.96875 C7.39442453 130.10104843 7.19845561 124.69164539 7.2019043 118.62866211 C7.19669266 117.14490837 7.19669266 117.14490837 7.19137573 115.63117981 C7.18403483 113.48736569 7.17868059 111.34354405 7.17508507 109.19972038 C7.1679102 105.80826033 7.15223787 102.41694415 7.13374329 99.02552795 C7.08130692 89.38446972 7.03325564 79.74349287 7.01782227 70.10229492 C7.00775913 64.20251814 6.97848315 58.30310724 6.93650246 52.40347481 C6.92417015 50.15440191 6.91907525 47.90527741 6.92130089 45.6561718 C6.92364543 42.51509155 6.90155352 39.37506854 6.8737793 36.23413086 C6.88038071 35.30259186 6.88698212 34.37105286 6.89378357 33.4112854 C6.85423044 28.31065782 6.85423044 28.31065782 4.46296692 23.91676331 C1.91788491 22.21060454 0.38609629 22.03319553 -2.65625 21.99609375 C-5.88124713 21.95676452 -7.27871926 21.76548103 -9.93359375 19.87109375 C-12.17925663 16.77503246 -12.22310681 14.7952291 -12.21875 10.99609375 C-12.24066406 9.87203125 -12.26257813 8.74796875 -12.28515625 7.58984375 C-11.65625 4.49609375 -11.65625 4.49609375 -9.53295898 2.33374023 C-6.06688606 0.11960708 -4.08618071 -0.00654472 0 0 Z " fill="#022226" transform="translate(349.65625,1007.50390625)"/>
<path d="M0 0 C0.89002716 -0.00554901 1.78005432 -0.01109802 2.697052 -0.01681519 C5.6332212 -0.02860678 8.56784545 -0.00434125 11.50390625 0.02148438 C13.54744395 0.02319567 15.59098384 0.0231296 17.63452148 0.0213623 C21.91509026 0.02301527 26.19513516 0.04170942 30.47558594 0.07324219 C35.96020684 0.11291947 41.4441416 0.11728723 46.92887878 0.10977936 C51.14797237 0.10670861 55.36691195 0.11883398 59.58596802 0.13591003 C61.60815464 0.14293722 63.63035872 0.14606491 65.65255737 0.1452179 C68.47962948 0.14701727 71.30588223 0.16841129 74.1328125 0.1953125 C74.96724884 0.1923819 75.80168518 0.18945129 76.66140747 0.18643188 C81.71054003 0.26049538 85.32130177 0.8701299 89.06640625 4.61523438 C89.2449959 6.71439463 89.33439102 8.82146126 89.37890625 10.92773438 C89.43498047 12.65443359 89.43498047 12.65443359 89.4921875 14.41601562 C89.06640625 17.61523438 89.06640625 17.61523438 87.48402405 19.78205872 C84.2014582 22.2710873 82.05650091 22.12646757 77.95874023 22.14526367 C77.25096436 22.15399506 76.54318848 22.16272644 75.81396484 22.17172241 C73.47988434 22.19607377 71.14669126 22.19268934 68.8125 22.18945312 C67.18871045 22.20189892 65.56493437 22.21623332 63.94117737 22.2323761 C59.66961898 22.27040882 55.39829244 22.28559044 51.12658691 22.29516602 C44.28579352 22.31490673 37.44517697 22.37174172 30.60457039 22.42392921 C28.21426467 22.43928123 25.82404691 22.44646766 23.43370056 22.45207214 C21.97069252 22.45908814 20.50768488 22.46618904 19.04467773 22.47338867 C17.12751198 22.47860786 17.12751198 22.47860786 15.1716156 22.4839325 C12.03124595 22.47369516 12.03124595 22.47369516 9.06640625 23.61523438 C7.74066295 27.59246427 7.92372119 31.40685064 7.93359375 35.55273438 C7.93263702 36.42921631 7.9316803 37.30569824 7.93069458 38.20874023 C7.93001426 40.06136141 7.93185825 41.91398497 7.93603516 43.76660156 C7.94138548 46.60422107 7.93608517 49.4416823 7.9296875 52.27929688 C7.93034831 54.07877639 7.93162952 55.87825581 7.93359375 57.67773438 C7.93156952 58.52779053 7.92954529 59.37784668 7.92745972 60.25366211 C7.94088387 63.62196654 7.99389455 66.39769927 9.06640625 69.61523438 C12.89172907 70.89034198 16.5095646 70.77026526 20.49609375 70.79101562 C22.19532491 70.81421244 23.8945437 70.83832972 25.59375 70.86328125 C28.26880186 70.8983953 30.94339801 70.92774436 33.61865234 70.94116211 C36.2033581 70.95665795 38.78673907 70.99687229 41.37109375 71.04101562 C42.16707977 71.03910721 42.9630658 71.03719879 43.78317261 71.03523254 C47.6951122 71.12116455 49.66174661 71.36472452 53.06835938 73.47363281 C55.66219581 76.25382993 55.73884099 77.79115926 55.69140625 81.55273438 C55.71074219 83.08220703 55.71074219 83.08220703 55.73046875 84.64257812 C54.81797638 88.72732337 53.35880335 90.04758045 50.06640625 92.61523438 C47.08863835 93.31222613 44.19940845 93.26651133 41.15234375 93.21679688 C40.30088776 93.22480316 39.44943176 93.23280945 38.57217407 93.24105835 C35.86142983 93.2640858 33.15219035 93.25467392 30.44140625 93.24023438 C27.72376437 93.23638911 25.00678228 93.2397886 22.28921509 93.26083374 C20.60092126 93.27294202 18.91244193 93.27022213 17.22421265 93.25112915 C13.05360297 93.16973432 13.05360297 93.16973432 9.35157776 94.81689453 C7.6306707 97.22495891 7.67967092 98.79360896 7.66235352 101.74169922 C7.64332726 103.30880142 7.64332726 103.30880142 7.62391663 104.90756226 C7.62685226 106.03570343 7.6297879 107.1638446 7.6328125 108.32617188 C7.62757065 109.48645905 7.6223288 110.64674622 7.6169281 111.8421936 C7.61049999 114.29843342 7.61185503 116.754704 7.62036133 119.2109375 C7.62885747 122.96865802 7.60014055 126.72485217 7.56835938 130.48242188 C7.56674697 132.86783809 7.56732564 135.25325699 7.5703125 137.63867188 C7.55907852 138.76276459 7.54784454 139.8868573 7.53627014 141.04501343 C7.54565109 142.09605255 7.55503204 143.14709167 7.56469727 144.22998047 C7.56486343 145.1513681 7.5650296 146.07275574 7.56520081 147.02206421 C8.25253943 150.57826263 9.39389329 152.17675757 12.06640625 154.61523438 C15.37778425 155.35005637 15.37778425 155.35005637 19.15820312 155.21118164 C20.2174575 155.21726944 20.2174575 155.21726944 21.29811096 155.22348022 C22.82753006 155.2289905 24.35702445 155.2230082 25.8863678 155.20681953 C28.30788269 155.18140208 30.72769522 155.18619456 33.14929199 155.19871521 C38.28851732 155.21946263 43.42721564 155.19977608 48.56640625 155.17773438 C54.52224545 155.15663259 60.47753736 155.15205107 66.43336487 155.17823601 C68.8179043 155.18159867 71.20139985 155.1603703 73.58581543 155.13783264 C75.04874906 155.14034394 76.51168139 155.143904 77.97460938 155.14868164 C79.25049927 155.14248306 80.52638916 155.13628448 81.84094238 155.12989807 C85.06640625 155.61523438 85.06640625 155.61523438 87.47644043 157.44883728 C89.66054179 160.4247697 89.59970132 162.51943865 89.56640625 166.17773438 C89.57671875 167.31339844 89.58703125 168.4490625 89.59765625 169.61914062 C89.06640625 172.61523438 89.06640625 172.61523438 87.60266113 174.27624512 C83.78270093 176.29295318 80.21433446 176.04954237 75.95507812 176.03515625 C75.03432999 176.04362579 74.11358185 176.05209534 73.16493225 176.06082153 C70.12153309 176.08422 67.07863855 176.08521311 64.03515625 176.08398438 C61.92053016 176.0910835 59.805906 176.09878212 57.69128418 176.10705566 C53.259467 176.1205065 48.82782798 176.12206617 44.39599609 176.11621094 C38.71268103 176.11031 33.03021879 176.14092037 27.34706879 176.18132782 C22.98048281 176.20715609 18.61410362 176.21008673 14.24745178 176.20643616 C12.15183872 176.20813153 10.05621653 176.21781396 7.9606781 176.23558044 C5.03244623 176.25767695 2.10595946 176.24811609 -0.82226562 176.23046875 C-1.6899205 176.24373199 -2.55757538 176.25699524 -3.45152283 176.2706604 C-7.45563554 176.21449296 -9.3027199 176.13254403 -12.47190857 173.53384399 C-14.29183769 169.8999133 -14.43240634 167.36529924 -14.43188477 163.30224609 C-14.43740356 162.58457062 -14.44292236 161.86689514 -14.4486084 161.12747192 C-14.45790318 159.57626959 -14.4580544 158.02499093 -14.45001411 156.47378159 C-14.43736649 154.01900915 -14.44868727 151.56535811 -14.46604919 149.11062622 C-14.4927253 144.78807949 -14.49834553 140.46580863 -14.49694824 136.14318848 C-14.49471755 129.21751504 -14.50876666 122.29218165 -14.5525341 115.366642 C-14.56238823 112.94736155 -14.55364923 110.52861411 -14.5438385 108.10934448 C-14.54998091 106.6293706 -14.55689204 105.14939964 -14.56469727 103.66943359 C-14.56325462 101.73014481 -14.56325462 101.73014481 -14.56178284 99.75167847 C-14.66784617 96.64721195 -14.66784617 96.64721195 -16.3377533 94.70901489 C-18.21267486 93.42395368 -19.6339431 93.0923387 -21.87109375 92.74023438 C-24.83001681 92.05363344 -25.97782254 91.57985134 -28.43359375 89.61523438 C-30.61489379 85.2526343 -30.82205136 81.39560807 -29.93359375 76.61523438 C-26.4677218 71.41642645 -22.67581552 70.93312134 -16.93359375 69.61523438 C-14.62260446 66.14875044 -14.68733001 64.84033326 -14.6940918 60.75439453 C-14.69036057 59.54949371 -14.68662933 58.3445929 -14.68278503 57.10317993 C-14.6869191 55.80004852 -14.69105316 54.49691711 -14.6953125 53.15429688 C-14.68929298 51.80291978 -14.68168643 50.4515489 -14.67256165 49.10018921 C-14.63546207 43.36331649 -14.6168853 37.62663779 -14.62817383 31.88964844 C-14.63403568 28.37807795 -14.61571345 24.86731356 -14.58228493 21.35590744 C-14.57049416 19.37235723 -14.58565773 17.38870591 -14.60124207 15.40518188 C-14.58146049 13.58837418 -14.58146049 13.58837418 -14.5612793 11.73486328 C-14.56064987 10.67135651 -14.56002045 9.60784973 -14.55937195 8.51211548 C-12.81235374 0.42473875 -7.02878103 -0.11172146 0 0 Z " fill="#032327" transform="translate(232.93359375,1007.384765625)"/>
<path d="M0 0 C1.03487045 -0.0071553 2.06974091 -0.01431061 3.13597107 -0.02168274 C6.54878191 -0.03855899 9.96027725 -0.01917209 13.37304688 0.00219727 C15.74906523 0.00136848 18.12508353 -0.00109128 20.50109863 -0.00511169 C25.47763351 -0.00796898 30.45371815 0.00672562 35.43017578 0.03417969 C41.80593229 0.06826158 48.18088373 0.06224318 54.55667877 0.04351711 C59.46208391 0.03294351 64.36730206 0.04188839 69.27268982 0.05690193 C71.62340235 0.0620815 73.97413443 0.06160469 76.32484436 0.05535698 C79.61152064 0.0499007 82.89704837 0.07029489 86.18359375 0.09765625 C87.15312485 0.09113037 88.12265594 0.08460449 89.12156677 0.07788086 C94.86618048 0.15910964 98.26045447 0.72455566 102.59179688 4.63110352 C103.31835938 7.72485352 103.31835938 7.72485352 103.21679688 11.13110352 C103.2090625 12.25516602 103.20132813 13.37922852 103.19335938 14.53735352 C102.4476538 18.37241078 101.7434642 19.33942509 98.59179688 21.63110352 C95.59154695 22.20039095 92.637524 22.14081108 89.59179688 22.09985352 C88.28275391 22.11042786 88.28275391 22.11042786 86.94726562 22.12121582 C83.21924654 22.15071597 79.49174954 22.13405571 75.76367188 22.12182617 C73.03939468 22.11944814 70.31596852 22.14034788 67.59179688 22.16235352 C66.75003906 22.15103394 65.90828125 22.13971436 65.04101562 22.12805176 C64.25339844 22.13485962 63.46578125 22.14166748 62.65429688 22.14868164 C61.96464844 22.14549927 61.275 22.14231689 60.56445312 22.13903809 C57.65706975 22.86426472 56.48919314 24.3525365 54.59179688 26.63110352 C53.99589346 29.08484623 53.99589346 29.08484623 54.0838623 31.79272461 C54.06694336 33.35733429 54.06694336 33.35733429 54.04968262 34.95355225 C54.05777954 36.09237854 54.06587646 37.23120483 54.07421875 38.40454102 C54.06720947 39.6081427 54.0602002 40.81174438 54.05297852 42.05181885 C54.03838996 45.34961943 54.04180811 48.64641614 54.05449486 51.94416046 C54.06462725 55.39629967 54.05522853 58.8483962 54.0489502 62.30053711 C54.04167444 68.09765315 54.05125942 73.89456531 54.0703125 79.69165039 C54.09208136 86.39238766 54.08502992 93.0926381 54.06300688 99.79336357 C54.04485065 105.54806623 54.04229556 111.30262239 54.05276155 117.05734444 C54.05899536 120.49369409 54.05983552 123.92981497 54.0466156 127.3661499 C54.03290774 131.19684755 54.05191054 135.02700058 54.07421875 138.85766602 C54.06612183 139.99649231 54.0580249 141.1353186 54.04968262 142.30865479 C54.06096191 143.35172791 54.07224121 144.39480103 54.0838623 145.46948242 C54.08612446 146.82778671 54.08612446 146.82778671 54.08843231 148.21353149 C54.75278781 151.40431485 56.08597659 152.61488126 58.59179688 154.63110352 C61.00308938 155.13911867 61.00308938 155.13911867 63.52929688 155.06860352 C67.17060065 155.32677572 68.51158221 155.58137043 71.71679688 157.56860352 C74.31593664 161.81386513 74.69269032 165.77198762 73.59179688 170.63110352 C72.28295898 173.24804688 72.28295898 173.24804688 69.59179688 175.63110352 C65.72584336 176.39662642 61.89648742 176.307192 57.96679688 176.26000977 C56.82774902 176.26242172 55.68870117 176.26483368 54.51513672 176.26731873 C52.10771197 176.26633954 49.70026491 176.2529293 47.29296875 176.22802734 C43.60534269 176.1937295 39.92011329 176.20736406 36.23242188 176.22680664 C33.89386999 176.21990817 31.55532431 176.21023578 29.21679688 176.19750977 C27.56043213 176.20494957 27.56043213 176.20494957 25.87060547 176.21253967 C24.84273926 176.19670334 23.81487305 176.180867 22.75585938 176.16455078 C21.85303223 176.1583522 20.95020508 176.15215363 20.02001953 176.14576721 C16.81676446 175.46683479 15.60791187 174.16101344 13.59179688 171.63110352 C13.06054688 168.75610352 13.06054688 168.75610352 13.09179688 165.63110352 C13.08148437 164.59985352 13.07117188 163.56860352 13.06054688 162.50610352 C13.72118147 158.93090453 14.66824047 157.75368556 17.59179688 155.63110352 C20.16270745 155.13669764 22.54104234 155.13172247 25.15429688 155.09985352 C28.43922472 154.46813662 29.49139413 153.19720147 31.59179688 150.63110352 C32.18791264 148.15752473 32.18791264 148.15752473 32.09973145 145.42478943 C32.11101074 144.37185699 32.12229004 143.31892456 32.13391113 142.23408508 C32.12581421 141.08433701 32.11771729 139.93458893 32.109375 138.75 C32.11638428 137.53503845 32.12339355 136.3200769 32.13061523 135.06829834 C32.14520355 131.73957743 32.14178628 128.41185107 32.12909889 125.08318591 C32.1189686 121.59988239 32.12836442 118.11662123 32.13464355 114.63331604 C32.14191896 108.78492606 32.13233425 102.9367382 32.11328125 97.08837891 C32.09150229 90.32513926 32.09857131 83.56238175 32.12058687 76.79915375 C32.13873198 70.99266284 32.14130394 65.18631715 32.1308322 59.37980705 C32.12459358 55.91163194 32.12377165 52.44368357 32.13697815 48.97552299 C32.15066612 45.11109505 32.13170142 41.24720847 32.109375 37.3828125 C32.11747192 36.23104019 32.12556885 35.07926788 32.13391113 33.89259338 C32.12263184 32.84248077 32.11135254 31.79236816 32.09973145 30.71043396 C32.09746929 29.33968546 32.09746929 29.33968546 32.09516144 27.94124508 C31.78591056 25.47444255 31.78591056 25.47444255 29.68334198 23.83646297 C27.38892522 22.51418838 26.15182617 22.26294914 23.52929688 22.27807617 C22.74167969 22.27442047 21.9540625 22.27076477 21.14257812 22.26699829 C20.30082031 22.27629364 19.4590625 22.28558899 18.59179688 22.29516602 C16.80012656 22.28265724 15.00845987 22.26962029 13.21679688 22.25610352 C10.39895897 22.25216799 7.5814762 22.25615697 4.76367188 22.27075195 C2.0391737 22.27931357 -0.68383601 22.25765992 -3.40820312 22.23266602 C-4.24996094 22.24600983 -5.09171875 22.25935364 -5.95898438 22.27310181 C-11.80237375 22.19920768 -11.80237375 22.19920768 -14.93310547 19.26342773 C-16.58067846 16.32331982 -17.00492264 14.48705495 -17.03320312 11.13110352 C-17.06671875 10.21329102 -17.10023438 9.29547852 -17.13476562 8.34985352 C-16.28437844 5.16775952 -14.91827616 3.71655811 -12.35752869 1.69072151 C-8.48671633 -0.41338183 -4.30628241 -0.05193223 0 0 Z " fill="#042428" transform="translate(501.408203125,1007.368896484375)"/>
<path d="M0 0 C0.33 0 0.66 0 1 0 C3.51062602 15.89930636 5.39382922 31.55536043 5.28515625 47.66796875 C5.28063824 48.34906834 5.27612022 49.03016792 5.2714653 49.73190689 C5.23706392 53.85500576 5.17401894 57.97729914 5.09979248 62.09985352 C5.01154705 67.03986456 4.9370909 71.97991393 4.88926697 76.92048645 C4.86214491 79.526064 4.82066033 82.13154381 4.76271057 84.73661804 C4.74957321 85.89756485 4.73643585 87.05851166 4.72290039 88.25463867 C4.70417374 89.27144211 4.68544708 90.28824554 4.66615295 91.33586121 C5.05263774 94.42005538 6.07414347 95.63054246 8 98 C7.74303831 100.69809776 7.20824654 102.58350693 6 105 C5.21882813 104.95359375 4.43765625 104.9071875 3.6328125 104.859375 C-8.60374374 104.47783427 -20.365683 106.56029985 -32.3972168 108.6328125 C-35 109 -35 109 -39 109 C-38.8604947 105.60387586 -38.71227678 102.20818542 -38.5625 98.8125 C-38.52318359 97.85279297 -38.48386719 96.89308594 -38.44335938 95.90429688 C-38.40146484 94.97294922 -38.35957031 94.04160156 -38.31640625 93.08203125 C-38.26141968 91.80162964 -38.26141968 91.80162964 -38.20532227 90.49536133 C-38 88 -38 88 -37.49560547 85.53540039 C-36.95497477 82.76966159 -36.82355631 80.16805136 -36.75390625 77.3515625 C-36.72272705 76.27068359 -36.69154785 75.18980469 -36.65942383 74.07617188 C-36.62743896 72.93728516 -36.5954541 71.79839844 -36.5625 70.625 C-35.55297365 42.3348302 -35.55297365 42.3348302 -28 32 C-27.21849636 30.8548096 -26.44005446 29.70752607 -25.6640625 28.55859375 C-19.3228925 19.28540519 -12.28166428 11.770081 -3.6640625 4.54296875 C-1.76915089 2.90611667 -1.76915089 2.90611667 0 0 Z " fill="#FBFCFC" transform="translate(485,509)"/>
<path d="M0 0 C0.66 0.33 1.32 0.66 2 1 C2.24104221 3.39821739 2.37041485 5.72051228 2.4375 8.125 C2.84252135 17.24158752 3.99700617 26.35185197 7.0625 34.99609375 C10.12884281 44.82116717 8.4692539 53.74761699 3.97827148 62.65185547 C0.66142193 68.88311562 -3.10695333 74.81498657 -7.11962891 80.61962891 C-7.91975852 81.77963492 -8.71319852 82.94427871 -9.50048828 84.11303711 C-10.61617403 85.76912598 -11.75082986 87.41238988 -12.88671875 89.0546875 C-20.39811292 102.12214537 -19.48224339 115.7238906 -19.25 130.3125 C-19.22989946 132.51756186 -19.211655 134.72264146 -19.1953125 136.92773438 C-19.15161071 142.28554863 -19.08498238 147.64268972 -19 153 C-19.33 153 -19.66 153 -20 153 C-20.0972084 152.3872522 -20.19441681 151.77450439 -20.29457092 151.14318848 C-26.27037715 113.37870356 -26.27037715 113.37870356 -32.6875 75.6875 C-32.82698059 74.89772766 -32.96646118 74.10795532 -33.11016846 73.29425049 C-33.79605595 69.41407269 -34.48431121 65.53431948 -35.17382812 61.65478516 C-36.47324734 54.33944286 -37.76140899 47.02219567 -39.03213501 39.70181274 C-39.29853942 38.17263979 -39.56685395 36.64379815 -39.83724976 35.11532593 C-40.20736141 33.02297972 -40.5712004 30.92963225 -40.93359375 28.8359375 C-41.14040771 27.65563965 -41.34722168 26.4753418 -41.56030273 25.25927734 C-41.98299402 22.12605764 -42.08178159 19.15682927 -42 16 C-41.43079834 16.12117188 -40.86159668 16.24234375 -40.27514648 16.3671875 C-37.66407345 16.91872928 -35.05086554 17.45942963 -32.4375 18 C-31.09461914 18.28617187 -31.09461914 18.28617187 -29.72460938 18.578125 C-24.72834101 19.60300056 -20.10192221 20.41797282 -15 20 C-12.31256004 18.06724457 -12.31256004 18.06724457 -10 15 C-9.41992188 14.29875 -8.83984375 13.5975 -8.2421875 12.875 C-4.92681476 8.76893166 -2.11040632 4.84152038 0 0 Z " fill="#FBFCFC" transform="translate(448,433)"/>
<path d="M0 0 C4.32909034 2.72943348 7.33676422 5.89695196 9.625 10.5 C10.48110779 15.02441751 10.46495481 19.40730739 10.375 24 C10.39820313 25.18464844 10.42140625 26.36929687 10.4453125 27.58984375 C10.40020259 34.33377534 9.75861769 38.7476539 5.30175781 43.93164062 C-0.5118581 49.36941998 -5.41990706 49.98284889 -13.26171875 49.90625 C-18.26280655 49.25366138 -21.8846615 47.09589309 -25.375 43.5 C-30.0274483 37.31043539 -30.04470812 31.70749666 -30 24.125 C-30.03222656 23.03960938 -30.06445312 21.95421875 -30.09765625 20.8359375 C-30.10691377 13.17071362 -28.53479765 8.24003806 -23.375 2.5 C-17.05930036 -3.12870257 -7.60665739 -3.27042467 0 0 Z " fill="#FCFCFC" transform="translate(292.375,1226.5)"/>
<path d="M0 0 C3.33303003 -0.1174875 6.66551837 -0.18767324 10 -0.25 C10.93457031 -0.28351563 11.86914062 -0.31703125 12.83203125 -0.3515625 C20.34826509 -0.45668465 25.54547571 0.97277749 31.2421875 5.96484375 C31.78101563 6.61582031 32.31984375 7.26679687 32.875 7.9375 C33.70644531 8.91009766 33.70644531 8.91009766 34.5546875 9.90234375 C39.23215741 16.69099603 38.97595561 25.06636082 38 33 C36.0576141 39.78967929 32.11521606 45.35793973 26 49 C20.57615643 51.41974205 15.44291138 51.23289279 9.625 51.125 C8.23474609 51.11146484 8.23474609 51.11146484 6.81640625 51.09765625 C4.54399923 51.07422937 2.2721382 51.04142748 0 51 C0 49.35 0 47.7 0 46 C1.32 45.34 2.64 44.68 4 44 C4 31.79 4 19.58 4 7 C2.68 6.67 1.36 6.34 0 6 C0 4.02 0 2.04 0 0 Z " fill="#08272B" transform="translate(387,1225)"/>
<path d="M0 0 C1.48831242 0.00667405 2.97660807 0.01863442 4.46484375 0.03515625 C5.22345703 0.03966797 5.98207031 0.04417969 6.76367188 0.04882812 C8.64326246 0.06064945 10.52281274 0.07858547 12.40234375 0.09765625 C12.73234375 1.74765625 13.06234375 3.39765625 13.40234375 5.09765625 C12.41234375 5.75765625 11.42234375 6.41765625 10.40234375 7.09765625 C12.32601061 14.11735284 14.76257498 20.88158288 17.42041016 27.65039062 C18.56575992 30.61516493 19.40234375 32.88936251 19.40234375 36.09765625 C20.06234375 36.09765625 20.72234375 36.09765625 21.40234375 36.09765625 C21.5725 35.370625 21.74265625 34.64359375 21.91796875 33.89453125 C23.48844755 27.37871496 25.34400847 21.0897028 27.6328125 14.7890625 C28.42496752 12.01853046 28.77992903 9.95651624 28.40234375 7.09765625 C27.41234375 6.43765625 26.42234375 5.77765625 25.40234375 5.09765625 C25.73234375 3.44765625 26.06234375 1.79765625 26.40234375 0.09765625 C31.68234375 0.09765625 36.96234375 0.09765625 42.40234375 0.09765625 C42.89734375 2.57265625 42.89734375 2.57265625 43.40234375 5.09765625 C42.41234375 5.75765625 41.42234375 6.41765625 40.40234375 7.09765625 C41.64238448 14.17894149 43.45531117 21.00822193 45.5 27.8984375 C46.26915934 30.62545698 46.8953998 33.31207762 47.40234375 36.09765625 C48.06234375 36.09765625 48.72234375 36.09765625 49.40234375 36.09765625 C49.53447266 35.37006104 49.66660156 34.64246582 49.80273438 33.89282227 C50.36323037 31.27998896 51.09591017 28.88784083 51.99609375 26.375 C52.30417969 25.50681641 52.61226562 24.63863281 52.9296875 23.74414062 C53.25066406 22.85017578 53.57164062 21.95621094 53.90234375 21.03515625 C54.53940006 19.25318949 55.17487695 17.47065711 55.80859375 15.6875 C56.09025391 14.90238037 56.37191406 14.11726074 56.66210938 13.30834961 C57.35048525 11.25253049 57.90916273 9.20780945 58.40234375 7.09765625 C57.41234375 6.43765625 56.42234375 5.77765625 55.40234375 5.09765625 C55.73234375 3.44765625 56.06234375 1.79765625 56.40234375 0.09765625 C61.68234375 0.09765625 66.96234375 0.09765625 72.40234375 0.09765625 C72.89734375 2.57265625 72.89734375 2.57265625 73.40234375 5.09765625 C72.40234375 6.09765625 72.40234375 6.09765625 69.33984375 6.16015625 C68.37046875 6.13953125 67.40109375 6.11890625 66.40234375 6.09765625 C66.23726318 6.6810376 66.07218262 7.26441895 65.90209961 7.86547852 C63.91008907 14.72071451 61.51013308 21.36811293 58.96484375 28.03515625 C58.19476338 30.06489592 57.42522913 32.09484287 56.65625 34.125 C56.28387207 35.10710449 55.91149414 36.08920898 55.52783203 37.10107422 C53.78075642 41.75261567 52.08747962 46.42337604 50.40234375 51.09765625 C48.75234375 51.09765625 47.10234375 51.09765625 45.40234375 51.09765625 C42.6647256 45.21259687 40.9375761 39.23815622 39.27734375 32.97265625 C39.01308594 31.99683594 38.74882812 31.02101563 38.4765625 30.015625 C37.32337905 25.72484598 36.23871203 21.46297165 35.40234375 17.09765625 C34.74234375 17.09765625 34.08234375 17.09765625 33.40234375 17.09765625 C33.304375 17.6803125 33.20640625 18.26296875 33.10546875 18.86328125 C32.02283321 24.79911058 30.39493094 30.34939887 28.421875 36.046875 C26.87522213 40.67498185 25.62915116 45.37630652 24.40234375 50.09765625 C21.92734375 50.59265625 21.92734375 50.59265625 19.40234375 51.09765625 C15.89317396 44.50998751 13.36333285 37.76125305 10.90234375 30.72265625 C8.45077043 23.76119209 5.96624965 16.84776057 3.11914062 10.03662109 C2.40234375 8.09765625 2.40234375 8.09765625 2.40234375 6.09765625 C0.42234375 6.09765625 -1.55765625 6.09765625 -3.59765625 6.09765625 C-3.97984392 4.44150968 -4.31160727 2.77308601 -4.59765625 1.09765625 C-3.59765625 0.09765625 -3.59765625 0.09765625 0 0 Z " fill="#09282C" transform="translate(173.59765625,1224.90234375)"/>
<path d="M0 0 C4.02058602 -0.11686443 8.04073082 -0.18747388 12.0625 -0.25 C13.19623047 -0.28351563 14.32996094 -0.31703125 15.49804688 -0.3515625 C22.26189183 -0.43044116 26.53865575 -0.11876378 32 4 C35.15260392 7.55939153 35.63522382 11.08611333 35.48828125 15.7109375 C34.63319727 19.71957119 32.20459231 22.53040593 29 25 C27.675271 25.36603546 26.34206286 25.70376333 25 26 C25.56589844 27.13179687 26.13179687 28.26359375 26.71484375 29.4296875 C29.14322917 34.28645833 31.57161458 39.14322917 34 44 C36.3140622 44.73075648 38.64828869 45.40138258 41 46 C40.67 47.65 40.34 49.3 40 51 C37.35409986 51.02684679 34.70846904 51.04676357 32.0625 51.0625 C31.30775391 51.07087891 30.55300781 51.07925781 29.77539062 51.08789062 C27.85005687 51.09652441 25.92464419 51.05224333 24 51 C23 50 23 50 22.9375 47.4375 C22.958125 46.633125 22.97875 45.82875 23 45 C23.99 45 24.98 45 26 45 C25.4225 43.86820313 24.845 42.73640625 24.25 41.5703125 C23.49979009 40.08864793 22.74980153 38.60687127 22 37.125 C21.6184375 36.37863281 21.236875 35.63226562 20.84375 34.86328125 C20.4828125 34.14785156 20.121875 33.43242188 19.75 32.6953125 C19.41484375 32.03547363 19.0796875 31.37563477 18.734375 30.69580078 C18 29 18 29 18 27 C15.69 27 13.38 27 11 27 C11.33 32.61 11.66 38.22 12 44 C13.65 44.66 15.3 45.32 17 46 C16.67 47.65 16.34 49.3 16 51 C10.72 51 5.44 51 0 51 C-0.33 49.35 -0.66 47.7 -1 46 C0.65 45.34 2.3 44.68 4 44 C4 31.79 4 19.58 4 7 C1.525 6.01 1.525 6.01 -1 5 C-0.67 3.35 -0.34 1.7 0 0 Z " fill="#08272B" transform="translate(499,1225)"/>
<path d="M0 0 C5.28 0 10.56 0 16 0 C16.33 1.65 16.66 3.3 17 5 C16.34 5.66 15.68 6.32 15 7 C15.33733154 7.53367187 15.67466309 8.06734375 16.0222168 8.6171875 C17.57751727 11.07799482 19.13251026 13.53899631 20.6875 16 C21.21794922 16.83917969 21.74839844 17.67835937 22.29492188 18.54296875 C22.82021484 19.37441406 23.34550781 20.20585938 23.88671875 21.0625 C24.40927246 21.8875 24.93182617 22.7125 25.47021484 23.5625 C26.47225737 25.15911548 27.46266472 26.76310654 28.43994141 28.375 C28.87870605 29.096875 29.3174707 29.81875 29.76953125 30.5625 C30.34537964 31.52349609 30.34537964 31.52349609 30.93286133 32.50390625 C31.94246753 34.16643149 31.94246753 34.16643149 34 35 C33.67 25.76 33.34 16.52 33 7 C31.35 6.34 29.7 5.68 28 5 C28.33 3.35 28.66 1.7 29 0 C34.28 0 39.56 0 45 0 C45 1.98 45 3.96 45 6 C43.68 6.33 42.36 6.66 41 7 C41 19.21 41 31.42 41 44 C42.32 44.33 43.64 44.66 45 45 C45 46.98 45 48.96 45 51 C39.72 51 34.44 51 29 51 C28.505 48.525 28.505 48.525 28 46 C28.66 45.34 29.32 44.68 30 44 C27.94406261 40.65088564 25.88086738 37.30636624 23.81103516 33.96582031 C22.76474047 32.27383709 21.72412448 30.57834651 20.68359375 28.8828125 C20.01972656 27.81289062 19.35585938 26.74296875 18.671875 25.640625 C18.0644043 24.65610352 17.45693359 23.67158203 16.83105469 22.65722656 C14.84534346 19.60396784 14.84534346 19.60396784 11 16 C11.33 25.24 11.66 34.48 12 44 C13.65 44.66 15.3 45.32 17 46 C16.67 47.65 16.34 49.3 16 51 C10.72 51 5.44 51 0 51 C0 49.02 0 47.04 0 45 C1.98 44.505 1.98 44.505 4 44 C4 31.79 4 19.58 4 7 C2.68 6.67 1.36 6.34 0 6 C0 4.02 0 2.04 0 0 Z " fill="#07262A" transform="translate(322,1225)"/>
<path d="M0 0 C4.32909034 2.72943348 7.33676422 5.89695196 9.625 10.5 C10.48110779 15.02441751 10.46495481 19.40730739 10.375 24 C10.39820313 25.18464844 10.42140625 26.36929687 10.4453125 27.58984375 C10.40020259 34.33377534 9.75861769 38.7476539 5.30175781 43.93164062 C-0.5118581 49.36941998 -5.41990706 49.98284889 -13.26171875 49.90625 C-18.26280655 49.25366138 -21.8846615 47.09589309 -25.375 43.5 C-30.0274483 37.31043539 -30.04470812 31.70749666 -30 24.125 C-30.03222656 23.03960938 -30.06445312 21.95421875 -30.09765625 20.8359375 C-30.10691377 13.17071362 -28.53479765 8.24003806 -23.375 2.5 C-17.05930036 -3.12870257 -7.60665739 -3.27042467 0 0 Z M-21.375 9.5 C-24.07218379 13.99046537 -23.70590963 18.27185029 -23.6875 23.375 C-23.70361328 24.26058594 -23.71972656 25.14617187 -23.73632812 26.05859375 C-23.74116699 32.55235498 -22.67875582 36.84719027 -18.3125 41.875 C-14.02440138 44.24713966 -10.17207687 44.16384589 -5.375 43.5 C-2.11599981 42.04385098 0.33764424 40.24482692 2.625 37.5 C4.13452023 32.97143932 3.97314162 28.49523806 4.0625 23.75 C4.13114258 22.28433594 4.13114258 22.28433594 4.20117188 20.7890625 C4.28046614 15.67285833 4.08970648 12.36830438 0.72265625 8.359375 C-2.61249001 4.98111278 -4.88526137 4.29335137 -9.625 4.125 C-15.37436109 4.17021123 -17.58675064 5.22607764 -21.375 9.5 Z " fill="#08272B" transform="translate(292.375,1226.5)"/>
<path d="M0 0 C2.49948615 0.59658517 4.41598102 -0.01012765 6.8984375 -0.546875 C7.8984375 0.453125 7.8984375 0.453125 7.99609375 3.39453125 C7.98449219 4.58949219 7.97289062 5.78445313 7.9609375 7.015625 C7.95191406 8.21316406 7.94289063 9.41070313 7.93359375 10.64453125 C7.92199219 11.57136719 7.91039062 12.49820312 7.8984375 13.453125 C6.2484375 13.783125 4.5984375 14.113125 2.8984375 14.453125 C2.2590625 13.31875 1.6196875 12.184375 0.9609375 11.015625 C-0.67522349 8.71097538 -1.61726121 7.62805945 -4.296875 6.66015625 C-7.84979709 6.16180909 -10.32700147 6.13196555 -13.6640625 7.515625 C-15.72422191 10.2923616 -15.59326713 12.08143609 -15.1015625 15.453125 C-13.16194064 17.79517921 -11.18376706 19.07766535 -8.44921875 20.35546875 C-7.75505859 20.68869141 -7.06089844 21.02191406 -6.34570312 21.36523438 C-4.89597829 22.04661803 -3.44546063 22.7263175 -1.99414062 23.40429688 C1.93615419 25.29477232 5.10395465 26.98628537 7.8984375 30.453125 C9.46684602 35.15835055 9.44739289 38.97961316 7.7109375 43.640625 C5.37797743 47.26073546 2.74298995 49.53084878 -1.1015625 51.453125 C-6.62270927 51.87331847 -10.99118865 51.64328522 -16.1015625 49.453125 C-18.78306243 49.83879631 -18.78306243 49.83879631 -21.1015625 50.453125 C-22.1015625 49.453125 -22.1015625 49.453125 -22.19921875 46.51171875 C-22.18761719 45.31675781 -22.17601562 44.12179687 -22.1640625 42.890625 C-22.15503906 41.69308594 -22.14601563 40.49554687 -22.13671875 39.26171875 C-22.12511719 38.33488281 -22.11351562 37.40804688 -22.1015625 36.453125 C-19.6265625 35.958125 -19.6265625 35.958125 -17.1015625 35.453125 C-16.69164062 36.01902344 -16.28171875 36.58492187 -15.859375 37.16796875 C-15.05113281 38.26818359 -15.05113281 38.26818359 -14.2265625 39.390625 C-13.69289063 40.12152344 -13.15921875 40.85242187 -12.609375 41.60546875 C-11.22144146 43.56410735 -11.22144146 43.56410735 -9.1015625 44.453125 C-5.19247678 44.70806537 -2.41031416 44.65895944 0.8984375 42.453125 C2.33578996 39.57842007 2.28016399 37.63417912 1.8984375 34.453125 C-2.17116227 30.58967756 -6.98933492 28.41838388 -12.01757812 26.09765625 C-15.69880256 24.33862792 -18.49011872 22.60940238 -21.1015625 19.453125 C-22.85423695 14.19510164 -22.87268033 10.0878948 -20.5390625 5.140625 C-15.15165448 -0.79933769 -7.57594151 -1.97143459 0 0 Z " fill="#08272B" transform="translate(581.1015625,1224.546875)"/>
<path d="M0 0 C5.28 0 10.56 0 16 0 C16 1.98 16 3.96 16 6 C15.01 6.495 15.01 6.495 14 7 C14.58945858 11.18868721 15.5590565 14.88710576 17.06640625 18.8359375 C17.46923828 19.89941406 17.87207031 20.96289062 18.28710938 22.05859375 C18.91842773 23.70021484 18.91842773 23.70021484 19.5625 25.375 C19.98724609 26.49261719 20.41199219 27.61023437 20.84960938 28.76171875 C21.89479747 31.50974139 22.94506524 34.25570752 24 37 C30.4099251 22.31314475 30.4099251 22.31314475 35 7 C34.01 6.34 33.02 5.68 32 5 C32.33 3.35 32.66 1.7 33 0 C38.28 0 43.56 0 49 0 C49.495 2.475 49.495 2.475 50 5 C49 6 49 6 45.9375 6.0625 C44.968125 6.041875 43.99875 6.02125 43 6 C42.86102295 6.51159668 42.7220459 7.02319336 42.57885742 7.55029297 C40.00054151 16.58916183 36.61220374 25.33171143 33.3125 34.125 C32.69957623 35.76551535 32.08694362 37.40613952 31.47460938 39.046875 C29.98642724 43.03251263 28.49431106 47.01665642 27 51 C25.35 51 23.7 51 22 51 C21.33912631 49.30623762 20.67859006 47.61234316 20.01928711 45.91796875 C19.41352749 44.36478985 18.80487727 42.81273577 18.19360352 41.26171875 C16.22005566 36.2302135 14.33631852 31.17631018 12.51953125 26.0859375 C12.0920459 24.91337402 11.66456055 23.74081055 11.22412109 22.53271484 C10.37400258 20.19851848 9.54191158 17.8576685 8.72900391 15.51025391 C8.33245605 14.43437012 7.9359082 13.35848633 7.52734375 12.25 C7.18437256 11.28578125 6.84140137 10.3215625 6.48803711 9.328125 C4.48785072 6.19871116 2.52867344 5.83419889 -1 5 C-0.67 3.35 -0.34 1.7 0 0 Z " fill="#08272B" transform="translate(740,1225)"/>
<path d="M0 0 C1.20970459 0.00523682 2.41940918 0.01047363 3.66577148 0.01586914 C4.97094727 0.0190918 6.27612305 0.02231445 7.62084961 0.02563477 C9.00952213 0.03399138 10.39819401 0.04245634 11.78686523 0.05102539 C13.17944179 0.05603873 14.57202005 0.06060193 15.96459961 0.06469727 C19.38456394 0.07653105 22.80444367 0.09301659 26.22436523 0.11352539 C26.60655291 1.76967196 26.93831625 3.43809563 27.22436523 5.11352539 C25.57357081 6.76431981 23.58700344 6.33901986 21.31420898 6.42993164 C19.83017578 6.49277344 19.83017578 6.49277344 18.31616211 6.55688477 C16.75478516 6.61585937 16.75478516 6.61585937 15.16186523 6.67602539 C14.11708008 6.71920898 13.07229492 6.76239258 11.99584961 6.80688477 C9.40552551 6.91333644 6.81496348 7.01396847 4.22436523 7.11352539 C4.22436523 11.40352539 4.22436523 15.69352539 4.22436523 20.11352539 C8.51436523 20.44352539 12.80436523 20.77352539 17.22436523 21.11352539 C17.22436523 22.76352539 17.22436523 24.41352539 17.22436523 26.11352539 C16.22436523 27.11352539 16.22436523 27.11352539 13.28295898 27.21118164 C9.9300944 27.17862956 6.57722982 27.14607747 3.22436523 27.11352539 C3.55436523 32.72352539 3.88436523 38.33352539 4.22436523 44.11352539 C11.48436523 44.44352539 18.74436523 44.77352539 26.22436523 45.11352539 C26.71936523 47.58852539 26.71936523 47.58852539 27.22436523 50.11352539 C26.22436523 51.11352539 26.22436523 51.11352539 23.44873047 51.22705078 C22.23902588 51.22181396 21.02932129 51.21657715 19.78295898 51.21118164 C18.4777832 51.20795898 17.17260742 51.20473633 15.82788086 51.20141602 C14.43920834 51.1930594 13.05053646 51.18459444 11.66186523 51.17602539 C10.26928868 51.17101205 8.87671042 51.16644886 7.48413086 51.16235352 C4.06419073 51.15051981 0.64427274 51.1325837 -2.77563477 51.11352539 C-3.10563477 43.52352539 -3.43563477 35.93352539 -3.77563477 28.11352539 C-5.09563477 27.45352539 -6.41563477 26.79352539 -7.77563477 26.11352539 C-7.77563477 24.46352539 -7.77563477 22.81352539 -7.77563477 21.11352539 C-6.45563477 20.78352539 -5.13563477 20.45352539 -3.77563477 20.11352539 C-3.78087158 19.5431958 -3.7861084 18.97286621 -3.79150391 18.38525391 C-3.81221698 15.81552216 -3.82527667 13.24580793 -3.83813477 10.67602539 C-3.84651367 9.77819336 -3.85489258 8.88036133 -3.86352539 7.95532227 C-3.86674805 7.10131836 -3.8699707 6.24731445 -3.87329102 5.36743164 C-3.87852783 4.57667236 -3.88376465 3.78591309 -3.88916016 2.97119141 C-3.70218952 -0.08829159 -3.09001371 0.12638371 0 0 Z " fill="#0C2B2F" transform="translate(451.775634765625,1224.886474609375)"/>
<path d="M0 0 C9.57 0 19.14 0 29 0 C29.495 2.475 29.495 2.475 30 5 C28.34920558 6.65079442 26.36263821 6.22549447 24.08984375 6.31640625 C22.60581055 6.37924805 22.60581055 6.37924805 21.09179688 6.44335938 C19.53041992 6.50233398 19.53041992 6.50233398 17.9375 6.5625 C16.89271484 6.60568359 15.84792969 6.64886719 14.77148438 6.69335938 C12.18116028 6.79981105 9.59059825 6.90044308 7 7 C7 11.29 7 15.58 7 20 C11.29 20.33 15.58 20.66 20 21 C20 22.65 20 24.3 20 26 C19 27 19 27 16.05859375 27.09765625 C12.70572917 27.06510417 9.35286458 27.03255208 6 27 C6.33 32.61 6.66 38.22 7 44 C14.26 44.33 21.52 44.66 29 45 C29.495 47.475 29.495 47.475 30 50 C29 51 29 51 26.22436523 51.11352539 C25.01466064 51.10828857 23.80495605 51.10305176 22.55859375 51.09765625 C21.25341797 51.09443359 19.94824219 51.09121094 18.60351562 51.08789062 C17.2148431 51.07953401 15.82617123 51.07106905 14.4375 51.0625 C13.04492344 51.05748666 11.65234519 51.05292347 10.25976562 51.04882812 C6.83982549 51.03699442 3.4199075 51.01905831 0 51 C-0.33 43.41 -0.66 35.82 -1 28 C-2.32 27.34 -3.64 26.68 -5 26 C-5 24.35 -5 22.7 -5 21 C-3.68 20.34 -2.36 19.68 -1 19 C-0.67 12.73 -0.34 6.46 0 0 Z " fill="#07262A" transform="translate(664,1225)"/>
<path d="M0 0 C4.47325056 0.07189153 6.85663948 1.39421779 10.3125 4.3125 C15.8636932 10.05873512 16.61198218 14.50464168 16.52734375 22.30078125 C16.14069624 27.72087633 14.4780044 30.93229742 10.9375 35.125 C6.16482371 39.10223024 2.49068295 39.66893363 -3.6875 39.3125 C-5.50315436 37.49684564 -4.81611899 34.99980038 -4.82644653 32.58361816 C-4.8244223 31.78258667 -4.82239807 30.98155518 -4.8203125 30.15625 C-4.82126923 29.33878296 -4.82222595 28.52131592 -4.82321167 27.67907715 C-4.82389345 25.94734622 -4.82203929 24.21561276 -4.81787109 22.48388672 C-4.81252279 19.82383518 -4.81781612 17.1639525 -4.82421875 14.50390625 C-4.82355797 12.82552046 -4.8222768 11.14713477 -4.8203125 9.46875 C-4.82233673 8.66771851 -4.82436096 7.86668701 -4.82644653 7.04138184 C-4.79808742 0.40661758 -4.79808742 0.40661758 0 0 Z " fill="#F6F7F7" transform="translate(402.6875,1230.6875)"/>
<path d="M0 0 C3.92226934 0.04202431 5.95107663 0.16303832 9.5 1.9375 C11.25 4.3125 11.25 4.3125 11.8125 7.3125 C11.11335642 11.04126576 10.2589652 12.03754731 7.25 14.3125 C3.796875 14.703125 3.796875 14.703125 0 14.5625 C-1.26328125 14.52640625 -2.5265625 14.4903125 -3.828125 14.453125 C-5.27445312 14.38351562 -5.27445312 14.38351562 -6.75 14.3125 C-6.77685938 12.16673363 -6.79633088 10.02087355 -6.8125 7.875 C-6.82410156 6.68003906 -6.83570313 5.48507812 -6.84765625 4.25390625 C-6.68024993 -0.78837222 -4.54523484 0.10531642 0 0 Z " fill="#FBFBFB" transform="translate(516.75,1230.6875)"/>
<path d="M0 0 C0.33 0 0.66 0 1 0 C1.49315068 17.7260274 1.49315068 17.7260274 -2.75 25 C-5.48730496 27.43315996 -7.39376645 27.75412044 -11 28 C-12.11791992 26.22558594 -12.11791992 26.22558594 -13 24 C-12.35668945 22.20410156 -12.35668945 22.20410156 -11.11328125 20.390625 C-10.66919922 19.71773438 -10.22511719 19.04484375 -9.76757812 18.3515625 C-9.28740234 17.65804688 -8.80722656 16.96453125 -8.3125 16.25 C-4.71607372 10.95847489 -2.03992316 6.08565706 0 0 Z " fill="#F0F2F2" transform="translate(533,461)"/>
<path d="M0 0 C8.08330939 -0.67360912 13.7355197 1.55828345 21 5 C17.57797036 6.17730378 15.63333402 5.79946945 12.25 4.625 C7.79022366 3.17590353 3.66298898 2.43175824 -1 2 C-0.67 1.34 -0.34 0.68 0 0 Z " fill="#E1E4E5" transform="translate(499,376)"/>
<path d="M0 0 C1.2065625 0.0309375 1.2065625 0.0309375 2.4375 0.0625 C2.81968767 1.71864657 3.15145102 3.38707024 3.4375 5.0625 C2.4375 6.0625 2.4375 6.0625 -0.125 6.125 C-1.3315625 6.0940625 -1.3315625 6.0940625 -2.5625 6.0625 C-2.94468767 4.40635343 -3.27645102 2.73792976 -3.5625 1.0625 C-2.5625 0.0625 -2.5625 0.0625 0 0 Z " fill="#113033" transform="translate(716.5625,1268.9375)"/>
<path d="M0 0 C0.99 0 1.98 0 3 0 C3.9765625 1.7578125 4.953125 3.515625 5.9296875 5.2734375 C7.00897274 7.1612614 7.00897274 7.1612614 9 9 C6.66471585 8.82701599 5.30822418 8.29774631 3.62109375 6.66796875 C0 2.42788462 0 2.42788462 0 0 Z " fill="#D1D7D7" transform="translate(474,350)"/>
<path d="M0 0 C2.3125 1.5625 2.3125 1.5625 4 3 C-0.05606165 2.53199289 -3.46588679 2.12046792 -7 0 C-4.25700998 -1.37149501 -2.91518346 -0.83290956 0 0 Z " fill="#C6CDCE" transform="translate(516,379)"/>
</svg>
